<svg width="12" height="12" viewBox="0 0 12 12" fill="none" xmlns="http://www.w3.org/2000/svg">
<path d="M0 1.5C0 1.30109 0.0790178 1.11032 0.21967 0.96967C0.360322 0.829018 0.551088 0.75 0.75 0.75H11.25C11.4489 0.75 11.6397 0.829018 11.7803 0.96967C11.921 1.11032 12 1.30109 12 1.5C12 1.69891 11.921 1.88968 11.7803 2.03033C11.6397 2.17098 11.4489 2.25 11.25 2.25H0.75C0.551088 2.25 0.360322 2.17098 0.21967 2.03033C0.0790178 1.88968 0 1.69891 0 1.5ZM0 10.5C0 10.3011 0.0790178 10.1103 0.21967 9.96967C0.360322 9.82902 0.551088 9.75 0.75 9.75H11.25C11.4489 9.75 11.6397 9.82902 11.7803 9.96967C11.921 10.1103 12 10.3011 12 10.5C12 10.6989 11.921 10.8897 11.7803 11.0303C11.6397 11.171 11.4489 11.25 11.25 11.25H0.75C0.551088 11.25 0.360322 11.171 0.21967 11.0303C0.0790178 10.8897 0 10.6989 0 10.5ZM0.75 5.25C0.551088 5.25 0.360322 5.32902 0.21967 5.46967C0.0790178 5.61032 0 5.80109 0 6C0 6.19891 0.0790178 6.38968 0.21967 6.53033C0.360322 6.67098 0.551088 6.75 0.75 6.75H6.75C6.94891 6.75 7.13968 6.67098 7.28033 6.53033C7.42098 6.38968 7.5 6.19891 7.5 6C7.5 5.80109 7.42098 5.61032 7.28033 5.46967C7.13968 5.32902 6.94891 5.25 6.75 5.25H0.75Z" fill="white"/>
</svg>
