<svg width="484" height="61" viewBox="0 0 484 61" fill="none" xmlns="http://www.w3.org/2000/svg">
<rect width="484" height="61" rx="30.5" fill="url(#paint0_linear_130_252)"/>
<path d="M116.75 35.875H106.125V33.75H104V27.375H106.125V25.25H116.75V27.375H118.875V29.5H112.5V27.375H110.375V33.75H112.5V31.625H118.875V33.75H116.75V35.875ZM137.15 35.875H126.525V33.75H124.4V27.375H126.525V25.25H137.15V27.375H139.275V33.75H137.15V35.875ZM132.9 33.75V27.375H130.775V33.75H132.9ZM159.675 35.875H155.425V33.75H151.175V31.625H149.05V35.875H144.8V25.25H149.05V27.375H153.3V29.5H155.425V25.25H159.675V35.875ZM180.075 35.875H175.825V33.75H171.575V31.625H169.45V35.875H165.2V25.25H169.45V27.375H173.7V29.5H175.825V25.25H180.075V35.875ZM191.975 33.75H200.475V35.875H185.6V25.25H200.475V27.375H191.975V29.5H198.35V31.625H191.975V33.75ZM218.75 35.875H208.125V33.75H206V27.375H208.125V25.25H218.75V27.375H220.875V29.5H214.5V27.375H212.375V33.75H214.5V31.625H220.875V33.75H218.75V35.875ZM239.15 35.875H228.525V33.75H230.65V27.375H226.4V25.25H241.275V27.375H237.025V33.75H239.15V35.875ZM273.575 35.875H269.325V33.75H267.2V35.875H262.95V33.75H260.825V25.25H265.075V29.5H267.2V27.375H269.325V29.5H271.45V25.25H275.7V33.75H273.575V35.875ZM296.1 35.875H289.725V33.75H287.6V35.875H281.225V27.375H283.35V25.25H293.975V27.375H296.1V35.875ZM289.725 31.625V27.375H287.6V31.625H289.725ZM308 33.75H316.5V35.875H301.625V25.25H308V33.75ZM328.4 33.75H336.9V35.875H322.025V25.25H328.4V33.75ZM348.8 33.75H357.3V35.875H342.425V25.25H357.3V27.375H348.8V29.5H355.175V31.625H348.8V33.75ZM375.575 35.875H364.95V33.75H367.075V27.375H362.825V25.25H377.7V27.375H373.45V33.75H375.575V35.875Z" fill="black"/>
<defs>
<linearGradient id="paint0_linear_130_252" x1="484" y1="-60" x2="194.638" y2="281.785" gradientUnits="userSpaceOnUse">
<stop stop-color="#9897E9"/>
<stop offset="0.989142" stop-color="#F1C8D4"/>
</linearGradient>
</defs>
</svg>
