<svg width="10" height="12" viewBox="0 0 10 12" fill="none" xmlns="http://www.w3.org/2000/svg">
<path d="M9.25967 10.7606L9.25963 10.7606C9.05803 10.9622 8.78461 11.0754 8.49951 11.0754C8.21577 11.0754 7.94359 10.9633 7.74227 10.7635L5.09409 7.73668L5.00003 7.62917L4.90595 7.73667L2.25742 10.7628C2.15841 10.8628 2.04073 10.9424 1.91105 10.997C1.78027 11.0521 1.63989 11.0808 1.49798 11.0814C1.35607 11.082 1.21546 11.0544 1.08424 11.0004C0.953025 10.9464 0.833807 10.8669 0.733463 10.7665C0.633119 10.6662 0.553635 10.547 0.499597 10.4158C0.445558 10.2845 0.418034 10.1439 0.418611 10.002C0.419189 9.86012 0.447858 9.71973 0.502963 9.58896C0.558069 9.45819 0.638521 9.33962 0.739678 9.2401L0.739921 9.24034L0.746059 9.23333L3.50406 6.08333L3.57614 6.001L3.50407 5.91866L0.74507 2.76666L0.745332 2.76643L0.738678 2.75988C0.637521 2.66036 0.557069 2.54179 0.501963 2.41102C0.446858 2.28025 0.418189 2.13986 0.417611 1.99796C0.417034 1.85605 0.444558 1.71543 0.498597 1.58422C0.552635 1.453 0.632119 1.33378 0.732463 1.23344C0.832807 1.1331 0.952025 1.05361 1.08324 0.999573C1.21446 0.945535 1.35507 0.91801 1.49698 0.918588C1.63889 0.919166 1.77927 0.947834 1.91005 1.00294C2.03973 1.05759 2.1574 1.13716 2.25641 1.23713L4.90594 4.2653L5.00003 4.37284L5.0941 4.26528L7.74262 1.23712C7.84163 1.13715 7.9593 1.05758 8.08898 1.00294C8.21975 0.947834 8.36014 0.919166 8.50205 0.918588C8.64395 0.91801 8.78457 0.945535 8.91578 0.999573C9.047 1.05361 9.16622 1.1331 9.26656 1.23344C9.36691 1.33378 9.44639 1.453 9.50043 1.58422C9.55447 1.71543 9.58199 1.85605 9.58141 1.99796C9.58084 2.13986 9.55217 2.28025 9.49706 2.41102C9.44196 2.54179 9.3615 2.66036 9.26035 2.75988L9.2601 2.75964L9.25394 2.76668L6.49594 5.91868L6.42389 6.00102L6.49597 6.08333L9.25397 9.23333L9.25376 9.23352L9.25967 9.23943C9.35962 9.33926 9.43891 9.45783 9.49301 9.58833C9.54711 9.71883 9.57496 9.85872 9.57496 9.99999C9.57496 10.1413 9.54711 10.2811 9.49301 10.4116C9.43891 10.5422 9.35962 10.6607 9.25967 10.7606Z" fill="white" stroke="#252525" stroke-width="0.25"/>
</svg>
