<svg width="147" height="20" viewBox="0 0 147 20" fill="none" xmlns="http://www.w3.org/2000/svg">
<path d="M7.37953 16H0.659534V0.999999H7.37953C8.7262 0.999999 9.85287 1.14 10.7595 1.42C11.6662 1.68667 12.3929 2.12 12.9395 2.72C13.4862 3.32 13.8729 4.09333 14.0995 5.04C14.3395 5.98667 14.4595 7.13333 14.4595 8.48C14.4595 9.82667 14.3395 10.98 14.0995 11.94C13.8729 12.8867 13.4862 13.66 12.9395 14.26C12.3929 14.86 11.6662 15.3 10.7595 15.58C9.85287 15.86 8.7262 16 7.37953 16ZM7.45953 4.84H5.45953V12.16H7.45953C8.1262 12.16 8.59953 12.0867 8.87953 11.94C9.17287 11.78 9.31953 11.4267 9.31953 10.88V6.12C9.31953 5.57333 9.17287 5.22667 8.87953 5.08C8.59953 4.92 8.1262 4.84 7.45953 4.84ZM20.8278 11.92V12.76C21.0678 12.7867 21.3078 12.8067 21.5478 12.82C21.7878 12.8333 22.0278 12.84 22.2678 12.84C23.7611 12.84 25.2678 12.6 26.7878 12.12L27.3478 15.64C25.5478 16.12 23.7745 16.36 22.0278 16.36C19.7878 16.36 18.1678 15.84 17.1678 14.8C16.1678 13.7467 15.6678 12.1467 15.6678 10C15.6678 7.85333 16.1678 6.26 17.1678 5.22C18.1811 4.16667 19.8011 3.64 22.0278 3.64C23.1478 3.64 24.0811 3.71333 24.8278 3.86C25.5745 3.99333 26.1745 4.22667 26.6278 4.56C27.0945 4.88 27.4211 5.32 27.6078 5.88C27.8078 6.42667 27.9078 7.12 27.9078 7.96C27.9078 8.65333 27.7878 9.25333 27.5478 9.76C27.3211 10.2533 26.9345 10.66 26.3878 10.98C25.8411 11.3 25.1145 11.54 24.2078 11.7C23.3011 11.8467 22.1745 11.92 20.8278 11.92ZM20.8278 8.16V9.14H21.8078C22.3945 9.14 22.8145 9.08 23.0678 8.96C23.3345 8.84 23.4678 8.56 23.4678 8.12V7.14H22.4878C21.9011 7.14 21.4745 7.2 21.2078 7.32C20.9545 7.44 20.8278 7.72 20.8278 8.16ZM37.9825 16L40.9825 4H36.1825L34.8625 11.8H34.6225L33.3025 4H28.5025L31.5025 16H37.9825ZM46.863 11.92V12.76C47.103 12.7867 47.343 12.8067 47.583 12.82C47.823 12.8333 48.063 12.84 48.303 12.84C49.7963 12.84 51.303 12.6 52.823 12.12L53.383 15.64C51.583 16.12 49.8096 16.36 48.063 16.36C45.823 16.36 44.203 15.84 43.203 14.8C42.203 13.7467 41.703 12.1467 41.703 10C41.703 7.85333 42.203 6.26 43.203 5.22C44.2163 4.16667 45.8363 3.64 48.063 3.64C49.183 3.64 50.1163 3.71333 50.863 3.86C51.6096 3.99333 52.2096 4.22667 52.663 4.56C53.1296 4.88 53.4563 5.32 53.643 5.88C53.843 6.42667 53.943 7.12 53.943 7.96C53.943 8.65333 53.823 9.25333 53.583 9.76C53.3563 10.2533 52.9696 10.66 52.423 10.98C51.8763 11.3 51.1496 11.54 50.243 11.7C49.3363 11.8467 48.2096 11.92 46.863 11.92ZM46.863 8.16V9.14H47.843C48.4296 9.14 48.8496 9.08 49.103 8.96C49.3696 8.84 49.503 8.56 49.503 8.12V7.14H48.523C47.9363 7.14 47.5096 7.2 47.243 7.32C46.9896 7.44 46.863 7.72 46.863 8.16ZM55.7377 0.399999L60.5377 0.0399992V12.56C60.791 12.6133 61.0177 12.6533 61.2177 12.68C61.4177 12.7067 61.5843 12.7267 61.7177 12.74L61.4977 16.26C59.4577 16.26 58.1043 16.14 57.4377 15.9C56.8777 15.7 56.451 15.44 56.1577 15.12C55.8777 14.8 55.7377 14.34 55.7377 13.74V0.399999ZM62.6795 10C62.6795 7.85333 63.1795 6.26 64.1795 5.22C65.1795 4.16667 66.7995 3.64 69.0395 3.64C71.2795 3.64 72.8995 4.16667 73.8995 5.22C74.8995 6.26 75.3995 7.85333 75.3995 10C75.3995 12.1467 74.8995 13.7467 73.8995 14.8C72.8995 15.84 71.2795 16.36 69.0395 16.36C66.8529 16.36 65.2462 15.8467 64.2195 14.82C63.1929 13.7933 62.6795 12.1867 62.6795 10ZM67.8395 8.16V12.86H68.5795C69.1662 12.86 69.5862 12.8 69.8395 12.68C70.1062 12.56 70.2395 12.28 70.2395 11.84V7.14H69.4995C68.9129 7.14 68.4862 7.2 68.2195 7.32C67.9662 7.44 67.8395 7.72 67.8395 8.16ZM77.3197 19.96V4H79.7197L80.5997 5.2C81.3064 4.16 82.613 3.64 84.5197 3.64C85.4797 3.64 86.2864 3.81333 86.9397 4.16C87.593 4.50667 88.1197 4.97333 88.5197 5.56C88.933 6.13333 89.2264 6.80667 89.3997 7.58C89.5864 8.35333 89.6797 9.16 89.6797 10C89.6797 10.8133 89.5997 11.58 89.4397 12.3C89.2797 13.02 89.013 13.66 88.6397 14.22C88.2664 14.7667 87.773 15.2 87.1597 15.52C86.5464 15.84 85.7864 16 84.8797 16H82.1197V19.6L77.3197 19.96ZM82.1197 8.04V12.86H82.8597C83.4464 12.86 83.8664 12.8 84.1197 12.68C84.3864 12.56 84.5197 12.28 84.5197 11.84V7.14H83.7797C83.433 7.14 83.153 7.15333 82.9397 7.18C82.7264 7.20667 82.5397 7.29333 82.3797 7.44C82.2197 7.57333 82.133 7.77333 82.1197 8.04ZM98.317 16V7.6H97.977C97.7637 7.6 97.557 7.60667 97.357 7.62C97.1704 7.63333 97.0037 7.68 96.857 7.76C96.7104 7.82667 96.597 7.93333 96.517 8.08C96.437 8.22667 96.397 8.43333 96.397 8.7V16H91.597V4H93.997L95.077 5.1C96.0504 4.12667 97.3304 3.64 98.917 3.64C100.49 3.64 101.637 3.96667 102.357 4.62C103.357 3.96667 104.49 3.64 105.757 3.64C107.05 3.64 108.05 3.88667 108.757 4.38C109.477 4.86 109.837 5.53333 109.837 6.4V16H105.037V7.6H104.697C104.51 7.6 104.324 7.60667 104.137 7.62C103.95 7.63333 103.784 7.67333 103.637 7.74C103.504 7.79333 103.384 7.88667 103.277 8.02C103.184 8.15333 103.13 8.33333 103.117 8.56V16H98.317ZM116.785 11.92V12.76C117.025 12.7867 117.265 12.8067 117.505 12.82C117.745 12.8333 117.985 12.84 118.225 12.84C119.718 12.84 121.225 12.6 122.745 12.12L123.305 15.64C121.505 16.12 119.732 16.36 117.985 16.36C115.745 16.36 114.125 15.84 113.125 14.8C112.125 13.7467 111.625 12.1467 111.625 10C111.625 7.85333 112.125 6.26 113.125 5.22C114.138 4.16667 115.758 3.64 117.985 3.64C119.105 3.64 120.038 3.71333 120.785 3.86C121.532 3.99333 122.132 4.22667 122.585 4.56C123.052 4.88 123.378 5.32 123.565 5.88C123.765 6.42667 123.865 7.12 123.865 7.96C123.865 8.65333 123.745 9.25333 123.505 9.76C123.278 10.2533 122.892 10.66 122.345 10.98C121.798 11.3 121.072 11.54 120.165 11.7C119.258 11.8467 118.132 11.92 116.785 11.92ZM116.785 8.16V9.14H117.765C118.352 9.14 118.772 9.08 119.025 8.96C119.292 8.84 119.425 8.56 119.425 8.12V7.14H118.445C117.858 7.14 117.432 7.2 117.165 7.32C116.912 7.44 116.785 7.72 116.785 8.16ZM125.66 4H128.06L129.26 5.2C130.74 4.16 132.34 3.64 134.06 3.64C135.193 3.64 136.073 3.88667 136.7 4.38C137.34 4.86 137.66 5.53333 137.66 6.4V16H132.86V7.6H132.12C131.573 7.6 131.16 7.66 130.88 7.78C130.6 7.88667 130.46 8.13333 130.46 8.52V16H125.66V4ZM140.417 7.1H139.217V4H140.417V2.08L145.217 0.879999V4H146.877V7.1H145.217V12.56C145.417 12.6 145.637 12.64 145.877 12.68C146.117 12.7067 146.37 12.7267 146.637 12.74L146.417 16.26C144.23 16.26 142.804 16.14 142.137 15.9C141.577 15.7 141.15 15.4467 140.857 15.14C140.564 14.82 140.417 14.3533 140.417 13.74V7.1Z" fill="white"/>
</svg>
