<svg width="18" height="14" viewBox="0 0 18 14" fill="none" xmlns="http://www.w3.org/2000/svg">
<path d="M15.2377 1.36898C14.0902 0.85148 12.8602 0.46898 11.574 0.25148C11.5625 0.249281 11.5507 0.250698 11.5401 0.255536C11.5295 0.260373 11.5206 0.268391 11.5147 0.27848C11.3572 0.55523 11.1817 0.91598 11.0587 1.20098C9.69457 0.997158 8.30767 0.997158 6.94349 1.20098C6.8065 0.885126 6.65201 0.577148 6.48074 0.27848C6.47494 0.268267 6.46616 0.260068 6.45557 0.254975C6.44498 0.249883 6.4331 0.24814 6.42149 0.24998C5.13599 0.46748 3.90599 0.84998 2.75774 1.36823C2.74787 1.37237 2.73949 1.37944 2.73374 1.38848C0.399744 4.81973 -0.240006 8.16623 0.0742443 11.4707C0.0751187 11.4788 0.0776309 11.4867 0.081628 11.4937C0.085625 11.5008 0.0910233 11.507 0.0974943 11.512C1.45979 12.5038 2.97925 13.2593 4.59224 13.747C4.60349 13.7504 4.61552 13.7504 4.62675 13.747C4.63799 13.7435 4.64792 13.7367 4.65524 13.7275C5.00234 13.2633 5.30992 12.7708 5.57474 12.2552C5.57842 12.2482 5.58054 12.2404 5.58096 12.2325C5.58137 12.2245 5.58008 12.2166 5.57717 12.2092C5.57425 12.2018 5.56978 12.1951 5.56406 12.1896C5.55833 12.1841 5.55149 12.1799 5.54399 12.1772C5.0595 11.9948 4.59006 11.7746 4.13999 11.5187C4.13191 11.5141 4.12509 11.5076 4.12016 11.4997C4.11523 11.4918 4.11234 11.4828 4.11174 11.4735C4.11115 11.4642 4.11287 11.4549 4.11675 11.4464C4.12064 11.438 4.12656 11.4306 4.13399 11.425C4.22849 11.3552 4.32299 11.2825 4.41299 11.2097C4.4211 11.2032 4.43085 11.199 4.44118 11.1977C4.45151 11.1964 4.462 11.1979 4.47149 11.2022C7.41674 12.5252 10.6065 12.5252 13.5172 11.2022C13.5268 11.1977 13.5374 11.1959 13.5478 11.1971C13.5583 11.1983 13.5682 11.2024 13.5765 11.209C13.6665 11.2825 13.7602 11.3552 13.8555 11.425C13.863 11.4305 13.869 11.4377 13.873 11.4461C13.877 11.4545 13.8789 11.4638 13.8785 11.4731C13.878 11.4824 13.8753 11.4914 13.8705 11.4994C13.8657 11.5073 13.859 11.514 13.851 11.5187C13.4025 11.7767 12.936 11.995 12.4462 12.1765C12.4387 12.1792 12.4319 12.1835 12.4261 12.1891C12.4204 12.1947 12.416 12.2014 12.413 12.2089C12.4101 12.2163 12.4088 12.2243 12.4093 12.2323C12.4097 12.2403 12.4118 12.2481 12.4155 12.2552C12.6855 12.7705 12.9945 13.261 13.3342 13.7267C13.3413 13.7363 13.3511 13.7434 13.3624 13.7472C13.3737 13.7509 13.3859 13.7511 13.3972 13.7477C15.013 13.2615 16.5349 12.5056 17.8987 11.512C17.9054 11.5073 17.911 11.5013 17.9151 11.4943C17.9193 11.4873 17.9219 11.4796 17.9227 11.4715C18.2977 7.65098 17.2942 4.33148 15.261 1.38998C15.256 1.38042 15.2478 1.37297 15.2377 1.36898ZM6.01499 9.45848C5.12849 9.45848 4.39724 8.65673 4.39724 7.67348C4.39724 6.68948 5.11424 5.88848 6.01499 5.88848C6.92249 5.88848 7.64699 6.69623 7.63274 7.67348C7.63274 8.65748 6.91574 9.45848 6.01499 9.45848ZM11.9962 9.45848C11.109 9.45848 10.3785 8.65673 10.3785 7.67348C10.3785 6.68948 11.0947 5.88848 11.9962 5.88848C12.9037 5.88848 13.6282 6.69623 13.614 7.67348C13.614 8.65748 12.9045 9.45848 11.9962 9.45848Z" fill="white"/>
</svg>
