<svg width="139" height="17" viewBox="0 0 139 17" fill="none" xmlns="http://www.w3.org/2000/svg">
<path d="M9.53953 6.86H5.45953V4.84H9.89953L10.4995 0.999999H0.659534V16H5.45953V10.44H9.53953V6.86ZM11.7086 4H16.5086V12.86H17.2486C17.8353 12.86 18.2553 12.8 18.5086 12.68C18.7753 12.56 18.9086 12.28 18.9086 11.84V4H23.7086V16H21.3086L19.9086 14.64C18.9486 15.7867 17.5819 16.36 15.8086 16.36C14.3819 16.36 13.3419 16.06 12.6886 15.46C12.0353 14.8467 11.7086 13.8267 11.7086 12.4V4ZM26.5888 7.1H25.3888V4H26.5888V2.08L31.3888 0.879999V4H33.0488V7.1H31.3888V12.56C31.5888 12.6 31.8088 12.64 32.0488 12.68C32.2888 12.7067 32.5421 12.7267 32.8088 12.74L32.5888 16.26C30.4021 16.26 28.9754 16.14 28.3088 15.9C27.7488 15.7 27.3221 15.4467 27.0288 15.14C26.7354 14.82 26.5888 14.3533 26.5888 13.74V7.1ZM34.5992 4H39.3992V12.86H40.1392C40.7259 12.86 41.1459 12.8 41.3992 12.68C41.6659 12.56 41.7992 12.28 41.7992 11.84V4H46.5992V16H44.1992L42.7992 14.64C41.8392 15.7867 40.4726 16.36 38.6992 16.36C37.2726 16.36 36.2326 16.06 35.5792 15.46C34.9259 14.8467 34.5992 13.8267 34.5992 12.4V4ZM48.9994 16V4H51.3994L52.7194 5.34C53.6794 4.46 54.866 3.89333 56.2794 3.64L56.5594 8.18C56.3727 8.18 56.146 8.20667 55.8794 8.26C55.6127 8.31333 55.3394 8.38 55.0594 8.46C54.7927 8.54 54.546 8.64 54.3194 8.76C54.0927 8.86667 53.9194 8.99333 53.7994 9.14V16H48.9994ZM62.6833 11.92V12.76C62.9233 12.7867 63.1633 12.8067 63.4033 12.82C63.6433 12.8333 63.8833 12.84 64.1233 12.84C65.6166 12.84 67.1233 12.6 68.6433 12.12L69.2033 15.64C67.4033 16.12 65.63 16.36 63.8833 16.36C61.6433 16.36 60.0233 15.84 59.0233 14.8C58.0233 13.7467 57.5233 12.1467 57.5233 10C57.5233 7.85333 58.0233 6.26 59.0233 5.22C60.0366 4.16667 61.6566 3.64 63.8833 3.64C65.0033 3.64 65.9366 3.71333 66.6833 3.86C67.43 3.99333 68.03 4.22667 68.4833 4.56C68.95 4.88 69.2766 5.32 69.4633 5.88C69.6633 6.42667 69.7633 7.12 69.7633 7.96C69.7633 8.65333 69.6433 9.25333 69.4033 9.76C69.1766 10.2533 68.79 10.66 68.2433 10.98C67.6966 11.3 66.97 11.54 66.0633 11.7C65.1566 11.8467 64.03 11.92 62.6833 11.92ZM62.6833 8.16V9.14H63.6633C64.25 9.14 64.67 9.08 64.9233 8.96C65.19 8.84 65.3233 8.56 65.3233 8.12V7.14H64.3433C63.7566 7.14 63.33 7.2 63.0633 7.32C62.81 7.44 62.6833 7.72 62.6833 8.16ZM85.4741 12.38H82.3541V16H77.5541V0.999999H85.1141C88.5541 0.999999 90.2741 2.84667 90.2741 6.54C90.2741 7.35333 90.1941 8.11333 90.0341 8.82C89.8741 9.52667 89.6007 10.1467 89.2141 10.68C88.8407 11.2 88.3474 11.6133 87.7341 11.92C87.1341 12.2267 86.3807 12.38 85.4741 12.38ZM83.4541 4.84H82.3541V8.54H83.4541C84.0407 8.54 84.4607 8.48 84.7141 8.36C84.9807 8.24 85.1141 7.96 85.1141 7.52V5.84C85.1141 5.41333 84.9807 5.14 84.7141 5.02C84.4607 4.9 84.0407 4.84 83.4541 4.84ZM96.3942 11.92V12.76C96.6342 12.7867 96.8742 12.8067 97.1142 12.82C97.3542 12.8333 97.5942 12.84 97.8342 12.84C99.3276 12.84 100.834 12.6 102.354 12.12L102.914 15.64C101.114 16.12 99.3409 16.36 97.5942 16.36C95.3542 16.36 93.7342 15.84 92.7342 14.8C91.7342 13.7467 91.2342 12.1467 91.2342 10C91.2342 7.85333 91.7342 6.26 92.7342 5.22C93.7476 4.16667 95.3676 3.64 97.5942 3.64C98.7142 3.64 99.6476 3.71333 100.394 3.86C101.141 3.99333 101.741 4.22667 102.194 4.56C102.661 4.88 102.988 5.32 103.174 5.88C103.374 6.42667 103.474 7.12 103.474 7.96C103.474 8.65333 103.354 9.25333 103.114 9.76C102.888 10.2533 102.501 10.66 101.954 10.98C101.408 11.3 100.681 11.54 99.7742 11.7C98.8676 11.8467 97.7409 11.92 96.3942 11.92ZM96.3942 8.16V9.14H97.3742C97.9609 9.14 98.3809 9.08 98.6342 8.96C98.9009 8.84 99.0342 8.56 99.0342 8.12V7.14H98.0542C97.4676 7.14 97.0409 7.2 96.7742 7.32C96.5209 7.44 96.3942 7.72 96.3942 8.16ZM105.269 16V4H107.669L108.989 5.34C109.949 4.46 111.136 3.89333 112.549 3.64L112.829 8.18C112.642 8.18 112.416 8.20667 112.149 8.26C111.882 8.31333 111.609 8.38 111.329 8.46C111.062 8.54 110.816 8.64 110.589 8.76C110.362 8.86667 110.189 8.99333 110.069 9.14V16H105.269ZM126.273 16L123.373 9.72L126.153 4H120.973L119.233 7.96H119.073V0.0399992L114.273 0.399999V16H119.073V11.24H119.233L121.093 16H126.273ZM128.87 4.48C129.897 3.92 131.304 3.64 133.09 3.64C134.89 3.64 136.537 3.88667 138.03 4.38L137.47 7.64C136.844 7.45333 136.224 7.32 135.61 7.24C134.997 7.16 134.37 7.12 133.73 7.12C133.544 7.12 133.31 7.12667 133.03 7.14C132.764 7.15333 132.457 7.18 132.11 7.22V7.98C132.844 7.98 133.597 8.02 134.37 8.1C135.144 8.16667 135.844 8.34 136.47 8.62C137.11 8.88667 137.63 9.29333 138.03 9.84C138.444 10.3733 138.65 11.1067 138.65 12.04C138.65 12.6933 138.577 13.28 138.43 13.8C138.284 14.3067 138.057 14.7133 137.75 15.02C137.43 15.3267 137.097 15.5733 136.75 15.76C136.417 15.9467 135.977 16.08 135.43 16.16C135.004 16.2267 134.544 16.2733 134.05 16.3C133.57 16.34 133.05 16.36 132.49 16.36C130.53 16.36 128.737 16.1267 127.11 15.66L127.71 12.26C128.39 12.46 129.09 12.6133 129.81 12.72C130.53 12.8267 131.284 12.88 132.07 12.88C132.43 12.88 132.77 12.8733 133.09 12.86C133.424 12.8467 133.744 12.82 134.05 12.78V12.02C132.77 12.02 131.697 11.94 130.83 11.78C129.977 11.6067 129.284 11.3467 128.75 11C128.23 10.6533 127.857 10.2 127.63 9.64C127.417 9.08 127.31 8.41333 127.31 7.64C127.31 6.09333 127.83 5.04 128.87 4.48Z" fill="white"/>
</svg>
