<svg width="351" height="127" viewBox="0 0 351 127" fill="none" xmlns="http://www.w3.org/2000/svg">
<path d="M37.912 26.464H37.52L32.704 3H22.456L17.584 26.464H17.192L14.056 3H0L6.608 45H24.136L27.16 29.544H27.944L31.024 45H48.608L55.16 3H41.104L37.912 26.464ZM71.6437 33.576V35.928C72.3157 36.0027 72.9877 36.0587 73.6597 36.096C74.3317 36.1333 75.0037 36.152 75.6757 36.152C79.857 36.152 84.0757 35.48 88.3317 34.136L89.8997 43.992C84.8597 45.336 79.8944 46.008 75.0037 46.008C68.7317 46.008 64.1957 44.552 61.3957 41.64C58.5957 38.6907 57.1957 34.2107 57.1957 28.2C57.1957 22.1893 58.5957 17.728 61.3957 14.816C64.233 11.8667 68.769 10.392 75.0037 10.392C78.1397 10.392 80.753 10.5973 82.8437 11.008C84.9344 11.3813 86.6144 12.0347 87.8837 12.968C89.1904 13.864 90.105 15.096 90.6277 16.664C91.1877 18.1947 91.4677 20.136 91.4677 22.488C91.4677 24.4293 91.1317 26.1093 90.4597 27.528C89.825 28.9093 88.7424 30.048 87.2117 30.944C85.681 31.84 83.6464 32.512 81.1077 32.96C78.569 33.3707 75.4144 33.576 71.6437 33.576ZM71.6437 23.048V25.792H74.3877C76.0304 25.792 77.2064 25.624 77.9157 25.288C78.6624 24.952 79.0357 24.168 79.0357 22.936V20.192H76.2917C74.649 20.192 73.4544 20.36 72.7077 20.696C71.9984 21.032 71.6437 21.816 71.6437 23.048ZM129.186 10.392C139.938 10.392 145.314 14.088 145.314 21.48V45H138.594L134.786 41.192C134.114 41.9387 133.311 42.6107 132.378 43.208C131.482 43.8053 130.511 44.3093 129.466 44.72C128.421 45.1307 127.357 45.448 126.274 45.672C125.191 45.896 124.146 46.008 123.138 46.008C121.234 46.008 119.517 45.8027 117.986 45.392C116.493 45.0187 115.223 44.4027 114.178 43.544C113.133 42.6853 112.33 41.5467 111.77 40.128C111.21 38.7093 110.93 36.9733 110.93 34.92C110.93 26.856 117.015 22.824 129.186 22.824H131.874V20.416C131.165 20.3787 130.511 20.3413 129.914 20.304C129.354 20.2667 128.831 20.248 128.346 20.248C123.306 20.248 118.957 20.864 115.298 22.096L113.674 12.464C118.154 11.0827 123.325 10.392 129.186 10.392ZM124.482 33.464V36.208H127.282C129.223 36.208 130.493 35.984 131.09 35.536C131.613 35.0507 131.874 34.472 131.874 33.8V30.608H129.13C127.525 30.608 126.349 30.776 125.602 31.112C124.855 31.448 124.482 32.232 124.482 33.464ZM151.344 45V11.4H158.064L161.76 15.152C164.448 12.688 167.771 11.1013 171.728 10.392L172.512 23.104C171.99 23.104 171.355 23.1787 170.608 23.328C169.862 23.4773 169.096 23.664 168.312 23.888C167.566 24.112 166.875 24.392 166.24 24.728C165.606 25.0267 165.12 25.3813 164.784 25.792V45H151.344ZM189.659 33.576V35.928C190.331 36.0027 191.003 36.0587 191.675 36.096C192.347 36.1333 193.019 36.152 193.691 36.152C197.873 36.152 202.091 35.48 206.347 34.136L207.915 43.992C202.875 45.336 197.91 46.008 193.019 46.008C186.747 46.008 182.211 44.552 179.411 41.64C176.611 38.6907 175.211 34.2107 175.211 28.2C175.211 22.1893 176.611 17.728 179.411 14.816C182.249 11.8667 186.785 10.392 193.019 10.392C196.155 10.392 198.769 10.5973 200.859 11.008C202.95 11.3813 204.63 12.0347 205.899 12.968C207.206 13.864 208.121 15.096 208.643 16.664C209.203 18.1947 209.483 20.136 209.483 22.488C209.483 24.4293 209.147 26.1093 208.475 27.528C207.841 28.9093 206.758 30.048 205.227 30.944C203.697 31.84 201.662 32.512 199.123 32.96C196.585 33.3707 193.43 33.576 189.659 33.576ZM189.659 23.048V25.792H192.403C194.046 25.792 195.222 25.624 195.931 25.288C196.678 24.952 197.051 24.168 197.051 22.936V20.192H194.307C192.665 20.192 191.47 20.36 190.723 20.696C190.014 21.032 189.659 21.816 189.659 23.048ZM232.642 20.08H229.282V11.4H232.642V6.024L246.082 2.664V11.4H250.73V20.08H246.082V35.368C246.642 35.48 247.258 35.592 247.93 35.704C248.602 35.7787 249.311 35.8347 250.058 35.872L249.442 45.728C243.319 45.728 239.324 45.392 237.458 44.72C235.89 44.16 234.695 43.4507 233.874 42.592C233.052 41.696 232.642 40.3893 232.642 38.672V20.08ZM269.183 24.28V45H255.743V1.32L269.183 0.311998V12.632C272.057 11.1387 275.231 10.392 278.703 10.392C282.212 10.392 284.863 11.0827 286.655 12.464C288.447 13.808 289.343 15.6933 289.343 18.12V45H275.903V21.48H273.831C272.188 21.48 270.993 21.648 270.247 21.984C269.537 22.32 269.183 23.0853 269.183 24.28ZM308.823 33.576V35.928C309.495 36.0027 310.167 36.0587 310.839 36.096C311.511 36.1333 312.183 36.152 312.855 36.152C317.037 36.152 321.255 35.48 325.511 34.136L327.079 43.992C322.039 45.336 317.074 46.008 312.183 46.008C305.911 46.008 301.375 44.552 298.575 41.64C295.775 38.6907 294.375 34.2107 294.375 28.2C294.375 22.1893 295.775 17.728 298.575 14.816C301.413 11.8667 305.949 10.392 312.183 10.392C315.319 10.392 317.933 10.5973 320.023 11.008C322.114 11.3813 323.794 12.0347 325.063 12.968C326.37 13.864 327.285 15.096 327.807 16.664C328.367 18.1947 328.647 20.136 328.647 22.488C328.647 24.4293 328.311 26.1093 327.639 27.528C327.005 28.9093 325.922 30.048 324.391 30.944C322.861 31.84 320.826 32.512 318.287 32.96C315.749 33.3707 312.594 33.576 308.823 33.576ZM308.823 23.048V25.792H311.567C313.21 25.792 314.386 25.624 315.095 25.288C315.842 24.952 316.215 24.168 316.215 22.936V20.192H313.471C311.829 20.192 310.634 20.36 309.887 20.696C309.178 21.032 308.823 21.816 308.823 23.048ZM31.248 102.96L32.256 114.272C29.3813 115.429 25.8347 116.008 21.616 116.008C17.6213 116.008 14.3173 115.579 11.704 114.72C9.09067 113.824 7.01867 112.48 5.488 110.688C3.95733 108.896 2.87467 106.619 2.24 103.856C1.64267 101.093 1.344 97.8267 1.344 94.056C1.344 90.3973 1.624 87.2053 2.184 84.48C2.78133 81.7173 3.82667 79.4213 5.32 77.592C6.81333 75.7253 8.82933 74.3253 11.368 73.392C13.944 72.4587 17.192 71.992 21.112 71.992C21.9707 71.992 22.9227 72.048 23.968 72.16C25.0507 72.2347 26.096 72.3467 27.104 72.496C28.1493 72.6453 29.12 72.832 30.016 73.056C30.9493 73.2427 31.696 73.4667 32.256 73.728L30.24 84.032C27.2533 83.3973 24.584 83.08 22.232 83.08C19.8053 83.08 18.1253 83.304 17.192 83.752C16.2587 84.2 15.792 85.096 15.792 86.44V104.024C16.6507 104.211 17.5093 104.36 18.368 104.472C19.264 104.547 20.1787 104.584 21.112 104.584C24.8453 104.584 28.224 104.043 31.248 102.96ZM36.9381 115V81.4H43.6581L47.3541 85.152C50.0421 82.688 53.3648 81.1013 57.3221 80.392L58.1061 93.104C57.5835 93.104 56.9488 93.1787 56.2021 93.328C55.4555 93.4773 54.6901 93.664 53.9061 93.888C53.1595 94.112 52.4688 94.392 51.8341 94.728C51.1995 95.0267 50.7141 95.3813 50.3781 95.792V115H36.9381ZM78.0531 80.392C88.8051 80.392 94.1811 84.088 94.1811 91.48V115H87.4611L83.6531 111.192C82.9811 111.939 82.1784 112.611 81.2451 113.208C80.3491 113.805 79.3784 114.309 78.3331 114.72C77.2877 115.131 76.2237 115.448 75.1411 115.672C74.0584 115.896 73.0131 116.008 72.0051 116.008C70.1011 116.008 68.3837 115.803 66.8531 115.392C65.3597 115.019 64.0904 114.403 63.0451 113.544C61.9997 112.685 61.1971 111.547 60.6371 110.128C60.0771 108.709 59.7971 106.973 59.7971 104.92C59.7971 96.856 65.8824 92.824 78.0531 92.824H80.7411V90.416C80.0317 90.3787 79.3784 90.3413 78.7811 90.304C78.2211 90.2667 77.6984 90.248 77.2131 90.248C72.1731 90.248 67.8237 90.864 64.1651 92.096L62.5411 82.464C67.0211 81.0827 72.1917 80.392 78.0531 80.392ZM73.3491 103.464V106.208H76.1491C78.0904 106.208 79.3597 105.984 79.9571 105.536C80.4797 105.051 80.7411 104.472 80.7411 103.8V100.608H77.9971C76.3917 100.608 75.2157 100.776 74.4691 101.112C73.7224 101.448 73.3491 102.232 73.3491 103.464ZM98.5316 115H130.788V104.92H117.628L117.404 104.528L130.396 88.12V81.4H99.8756L100.884 91.48H111.524L111.692 91.872L98.5316 108.28V115ZM147.013 111.528H139.957L132.453 81.4H145.893L149.589 103.24H150.261L153.957 81.4H167.397L158.997 115C158.4 117.203 157.709 119.013 156.925 120.432C156.178 121.851 155.301 122.971 154.293 123.792C153.285 124.651 152.109 125.248 150.765 125.584C149.458 125.92 147.928 126.088 146.173 126.088H133.125V117.352L139.453 116.12C142.701 115.373 144.81 114.571 145.781 113.712C146.042 113.488 146.285 113.227 146.509 112.928C146.733 112.629 146.938 112.293 147.125 111.92L147.013 111.528ZM212.412 89.408H200.988V83.752H213.42L215.1 73H187.548V115H200.988V99.432H212.412V89.408ZM219.157 115V81.4H225.877L229.573 85.152C232.261 82.688 235.584 81.1013 239.541 80.392L240.325 93.104C239.802 93.104 239.168 93.1787 238.421 93.328C237.674 93.4773 236.909 93.664 236.125 93.888C235.378 94.112 234.688 94.392 234.053 94.728C233.418 95.0267 232.933 95.3813 232.597 95.792V115H219.157ZM243.024 98.2C243.024 92.1893 244.424 87.728 247.224 84.816C250.024 81.8667 254.56 80.392 260.832 80.392C267.104 80.392 271.64 81.8667 274.44 84.816C277.24 87.728 278.64 92.1893 278.64 98.2C278.64 104.211 277.24 108.691 274.44 111.64C271.64 114.552 267.104 116.008 260.832 116.008C254.709 116.008 250.21 114.571 247.336 111.696C244.461 108.821 243.024 104.323 243.024 98.2ZM257.472 93.048V106.208H259.544C261.186 106.208 262.362 106.04 263.072 105.704C263.818 105.368 264.192 104.584 264.192 103.352V90.192H262.12C260.477 90.192 259.282 90.36 258.536 90.696C257.826 91.032 257.472 91.816 257.472 93.048ZM282.224 124.072L283.96 114.048C287.806 115.355 292.267 116.008 297.344 116.008C298.091 116.008 298.726 115.989 299.248 115.952C299.808 115.952 300.238 115.933 300.536 115.896V113.544C298.52 113.544 296.878 113.507 295.608 113.432C294.339 113.32 293.387 113.171 292.752 112.984C291.483 112.648 290.68 112.312 290.344 111.976C289.934 111.64 289.691 111.379 289.616 111.192C289.542 110.968 289.504 110.651 289.504 110.24L291.52 104.472C288.31 103.875 285.864 102.661 284.184 100.832C282.504 98.9653 281.664 96.072 281.664 92.152C281.664 88.2693 282.99 85.3387 285.64 83.36C288.291 81.3813 292.584 80.392 298.52 80.392C299.603 80.392 300.611 80.4293 301.544 80.504C302.478 80.5413 303.374 80.6347 304.232 80.784L310.112 76.304L317.168 83.08L313.304 87.56C313.902 89.0907 314.2 91.1067 314.2 93.608C314.2 95.3627 313.995 96.8933 313.584 98.2C313.174 99.5067 312.483 100.608 311.512 101.504C310.579 102.4 309.347 103.109 307.816 103.632C306.286 104.117 304.382 104.453 302.104 104.64L301.824 106.264C304.251 106.413 306.304 106.656 307.984 106.992C309.664 107.291 311.027 107.776 312.072 108.448C313.118 109.12 313.864 109.979 314.312 111.024C314.798 112.069 315.04 113.395 315.04 115C315.04 117.688 314.499 119.779 313.416 121.272C312.334 122.765 310.915 123.867 309.16 124.576C307.443 125.285 305.483 125.715 303.28 125.864C301.115 126.013 298.931 126.088 296.728 126.088C292.286 126.088 287.451 125.416 282.224 124.072ZM294.32 92.152V96.52H296.392C297.998 96.52 299.174 96.352 299.92 96.016C300.667 95.68 301.04 94.9147 301.04 93.72V89.352H298.912C297.307 89.352 296.131 89.52 295.384 89.856C294.675 90.192 294.32 90.9573 294.32 92.152ZM323.249 82.744C326.123 81.176 330.062 80.392 335.065 80.392C340.105 80.392 344.715 81.0827 348.897 82.464L347.329 91.592C345.574 91.0693 343.838 90.696 342.121 90.472C340.403 90.248 338.649 90.136 336.857 90.136C336.334 90.136 335.681 90.1547 334.897 90.192C334.15 90.2293 333.291 90.304 332.321 90.416V92.544C334.374 92.544 336.483 92.656 338.649 92.88C340.814 93.0667 342.774 93.552 344.529 94.336C346.321 95.0827 347.777 96.2213 348.897 97.752C350.054 99.2453 350.633 101.299 350.633 103.912C350.633 105.741 350.427 107.384 350.017 108.84C349.606 110.259 348.971 111.397 348.113 112.256C347.217 113.115 346.283 113.805 345.313 114.328C344.379 114.851 343.147 115.224 341.617 115.448C340.422 115.635 339.134 115.765 337.753 115.84C336.409 115.952 334.953 116.008 333.385 116.008C327.897 116.008 322.875 115.355 318.321 114.048L320.001 104.528C321.905 105.088 323.865 105.517 325.881 105.816C327.897 106.115 330.006 106.264 332.209 106.264C333.217 106.264 334.169 106.245 335.065 106.208C335.998 106.171 336.894 106.096 337.753 105.984V103.856C334.169 103.856 331.163 103.632 328.737 103.184C326.347 102.699 324.406 101.971 322.913 101C321.457 100.029 320.411 98.76 319.777 97.192C319.179 95.624 318.881 93.7573 318.881 91.592C318.881 87.2613 320.337 84.312 323.249 82.744Z" fill="white"/>
</svg>
