<svg width="300" height="25" viewBox="0 0 300 25" fill="none" xmlns="http://www.w3.org/2000/svg">
<path d="M16.4472 12.056H16.2792L14.2152 2H9.82322L7.73522 12.056H7.56722L6.22322 2H0.199219L3.03122 20H10.5432L11.8392 13.376H12.1752L13.4952 20H21.0312L23.8392 2H17.8152L16.4472 12.056ZM30.9037 15.104V16.112C31.1917 16.144 31.4797 16.168 31.7677 16.184C32.0557 16.2 32.3437 16.208 32.6317 16.208C34.4237 16.208 36.2317 15.92 38.0557 15.344L38.7277 19.568C36.5677 20.144 34.4397 20.432 32.3437 20.432C29.6557 20.432 27.7117 19.808 26.5117 18.56C25.3117 17.296 24.7117 15.376 24.7117 12.8C24.7117 10.224 25.3117 8.312 26.5117 7.064C27.7277 5.8 29.6717 5.168 32.3437 5.168C33.6877 5.168 34.8077 5.256 35.7037 5.432C36.5997 5.592 37.3197 5.872 37.8637 6.272C38.4237 6.656 38.8157 7.184 39.0397 7.856C39.2797 8.512 39.3997 9.344 39.3997 10.352C39.3997 11.184 39.2557 11.904 38.9677 12.512C38.6957 13.104 38.2317 13.592 37.5757 13.976C36.9197 14.36 36.0477 14.648 34.9597 14.84C33.8717 15.016 32.5197 15.104 30.9037 15.104ZM30.9037 10.592V11.768H32.0797C32.7837 11.768 33.2877 11.696 33.5917 11.552C33.9117 11.408 34.0717 11.072 34.0717 10.544V9.368H32.8957C32.1917 9.368 31.6797 9.44 31.3597 9.584C31.0557 9.728 30.9037 10.064 30.9037 10.592ZM55.5646 5.168C60.1726 5.168 62.4766 6.752 62.4766 9.92V20H59.5966L57.9646 18.368C57.6766 18.688 57.3326 18.976 56.9326 19.232C56.5486 19.488 56.1326 19.704 55.6846 19.88C55.2366 20.056 54.7806 20.192 54.3166 20.288C53.8526 20.384 53.4046 20.432 52.9726 20.432C52.1566 20.432 51.4206 20.344 50.7646 20.168C50.1246 20.008 49.5806 19.744 49.1326 19.376C48.6846 19.008 48.3406 18.52 48.1006 17.912C47.8606 17.304 47.7406 16.56 47.7406 15.68C47.7406 12.224 50.3486 10.496 55.5646 10.496H56.7166V9.464C56.4126 9.448 56.1326 9.432 55.8766 9.416C55.6366 9.4 55.4126 9.392 55.2046 9.392C53.0446 9.392 51.1806 9.656 49.6126 10.184L48.9166 6.056C50.8366 5.464 53.0526 5.168 55.5646 5.168ZM53.5486 15.056V16.232H54.7486C55.5806 16.232 56.1246 16.136 56.3806 15.944C56.6046 15.736 56.7166 15.488 56.7166 15.2V13.832H55.5406C54.8526 13.832 54.3486 13.904 54.0286 14.048C53.7086 14.192 53.5486 14.528 53.5486 15.056ZM65.0611 20V5.6H67.9411L69.5251 7.208C70.6771 6.152 72.1011 5.472 73.7971 5.168L74.1331 10.616C73.9091 10.616 73.6371 10.648 73.3171 10.712C72.9971 10.776 72.6691 10.856 72.3331 10.952C72.0131 11.048 71.7171 11.168 71.4451 11.312C71.1731 11.44 70.9651 11.592 70.8211 11.768V20H65.0611ZM81.4818 15.104V16.112C81.7698 16.144 82.0578 16.168 82.3458 16.184C82.6338 16.2 82.9218 16.208 83.2098 16.208C85.0018 16.208 86.8098 15.92 88.6338 15.344L89.3058 19.568C87.1458 20.144 85.0178 20.432 82.9218 20.432C80.2338 20.432 78.2898 19.808 77.0898 18.56C75.8898 17.296 75.2898 15.376 75.2898 12.8C75.2898 10.224 75.8898 8.312 77.0898 7.064C78.3058 5.8 80.2498 5.168 82.9218 5.168C84.2658 5.168 85.3858 5.256 86.2818 5.432C87.1778 5.592 87.8978 5.872 88.4418 6.272C89.0018 6.656 89.3938 7.184 89.6178 7.856C89.8578 8.512 89.9778 9.344 89.9778 10.352C89.9778 11.184 89.8338 11.904 89.5458 12.512C89.2738 13.104 88.8098 13.592 88.1538 13.976C87.4978 14.36 86.6258 14.648 85.5378 14.84C84.4498 15.016 83.0978 15.104 81.4818 15.104ZM81.4818 10.592V11.768H82.6578C83.3618 11.768 83.8658 11.696 84.1698 11.552C84.4898 11.408 84.6498 11.072 84.6498 10.544V9.368H83.4738C82.7698 9.368 82.2578 9.44 81.9378 9.584C81.6338 9.728 81.4818 10.064 81.4818 10.592ZM99.9027 9.32H98.4627V5.6H99.9027V3.296L105.663 1.856V5.6H107.655V9.32H105.663V15.872C105.903 15.92 106.167 15.968 106.455 16.016C106.743 16.048 107.047 16.072 107.367 16.088L107.103 20.312C104.479 20.312 102.767 20.168 101.967 19.88C101.295 19.64 100.783 19.336 100.431 18.968C100.079 18.584 99.9027 18.024 99.9027 17.288V9.32ZM115.563 11.12V20H109.803V1.28L115.563 0.847999V6.128C116.795 5.488 118.155 5.168 119.643 5.168C121.147 5.168 122.283 5.464 123.051 6.056C123.819 6.632 124.203 7.44 124.203 8.48V20H118.443V9.92H117.555C116.851 9.92 116.339 9.992 116.019 10.136C115.715 10.28 115.563 10.608 115.563 11.12ZM132.552 15.104V16.112C132.84 16.144 133.128 16.168 133.416 16.184C133.704 16.2 133.992 16.208 134.28 16.208C136.072 16.208 137.88 15.92 139.704 15.344L140.376 19.568C138.216 20.144 136.088 20.432 133.992 20.432C131.304 20.432 129.36 19.808 128.16 18.56C126.96 17.296 126.36 15.376 126.36 12.8C126.36 10.224 126.96 8.312 128.16 7.064C129.376 5.8 131.32 5.168 133.992 5.168C135.336 5.168 136.456 5.256 137.352 5.432C138.248 5.592 138.968 5.872 139.512 6.272C140.072 6.656 140.464 7.184 140.688 7.856C140.928 8.512 141.048 9.344 141.048 10.352C141.048 11.184 140.904 11.904 140.616 12.512C140.344 13.104 139.88 13.592 139.224 13.976C138.568 14.36 137.696 14.648 136.608 14.84C135.52 15.016 134.168 15.104 132.552 15.104ZM132.552 10.592V11.768H133.728C134.432 11.768 134.936 11.696 135.24 11.552C135.56 11.408 135.72 11.072 135.72 10.544V9.368H134.544C133.84 9.368 133.328 9.44 133.008 9.584C132.704 9.728 132.552 10.064 132.552 10.592ZM162.349 14.84L162.781 19.688C161.549 20.184 160.029 20.432 158.221 20.432C156.509 20.432 155.093 20.248 153.973 19.88C152.853 19.496 151.965 18.92 151.309 18.152C150.653 17.384 150.189 16.408 149.917 15.224C149.661 14.04 149.533 12.64 149.533 11.024C149.533 9.456 149.653 8.088 149.893 6.92C150.149 5.736 150.597 4.752 151.237 3.968C151.877 3.168 152.741 2.568 153.829 2.168C154.933 1.768 156.325 1.568 158.005 1.568C158.373 1.568 158.781 1.592 159.229 1.64C159.693 1.672 160.141 1.72 160.573 1.784C161.021 1.848 161.437 1.928 161.821 2.024C162.221 2.104 162.541 2.2 162.781 2.312L161.917 6.728C160.637 6.456 159.493 6.32 158.485 6.32C157.445 6.32 156.725 6.416 156.325 6.608C155.925 6.8 155.725 7.184 155.725 7.76V15.296C156.093 15.376 156.461 15.44 156.829 15.488C157.213 15.52 157.605 15.536 158.005 15.536C159.605 15.536 161.053 15.304 162.349 14.84ZM164.788 20V5.6H167.668L169.252 7.208C170.404 6.152 171.828 5.472 173.524 5.168L173.86 10.616C173.636 10.616 173.364 10.648 173.044 10.712C172.724 10.776 172.396 10.856 172.06 10.952C171.74 11.048 171.444 11.168 171.172 11.312C170.9 11.44 170.692 11.592 170.548 11.768V20H164.788ZM182.408 5.168C187.016 5.168 189.32 6.752 189.32 9.92V20H186.44L184.808 18.368C184.52 18.688 184.176 18.976 183.776 19.232C183.392 19.488 182.976 19.704 182.528 19.88C182.08 20.056 181.624 20.192 181.16 20.288C180.696 20.384 180.248 20.432 179.816 20.432C179 20.432 178.264 20.344 177.608 20.168C176.968 20.008 176.424 19.744 175.976 19.376C175.528 19.008 175.184 18.52 174.944 17.912C174.704 17.304 174.584 16.56 174.584 15.68C174.584 12.224 177.192 10.496 182.408 10.496H183.56V9.464C183.256 9.448 182.976 9.432 182.72 9.416C182.48 9.4 182.256 9.392 182.048 9.392C179.888 9.392 178.024 9.656 176.456 10.184L175.76 6.056C177.68 5.464 179.896 5.168 182.408 5.168ZM180.392 15.056V16.232H181.592C182.424 16.232 182.968 16.136 183.224 15.944C183.448 15.736 183.56 15.488 183.56 15.2V13.832H182.384C181.696 13.832 181.192 13.904 180.872 14.048C180.552 14.192 180.392 14.528 180.392 15.056ZM191.185 20H205.009V15.68H199.369L199.273 15.512L204.841 8.48V5.6H191.761L192.193 9.92H196.753L196.825 10.088L191.185 17.12V20ZM211.963 18.512H208.939L205.723 5.6H211.483L213.067 14.96H213.355L214.939 5.6H220.699L217.099 20C216.843 20.944 216.547 21.72 216.211 22.328C215.891 22.936 215.515 23.416 215.083 23.768C214.651 24.136 214.147 24.392 213.571 24.536C213.011 24.68 212.355 24.752 211.603 24.752H206.011V21.008L208.723 20.48C210.115 20.16 211.019 19.816 211.435 19.448C211.547 19.352 211.651 19.24 211.747 19.112C211.843 18.984 211.931 18.84 212.011 18.68L211.963 18.512ZM239.991 9.032H235.095V6.608H240.423L241.143 2H229.335V20H235.095V13.328H239.991V9.032ZM242.881 20V5.6H245.761L247.345 7.208C248.497 6.152 249.921 5.472 251.617 5.168L251.953 10.616C251.729 10.616 251.457 10.648 251.137 10.712C250.817 10.776 250.489 10.856 250.153 10.952C249.833 11.048 249.537 11.168 249.265 11.312C248.993 11.44 248.785 11.592 248.641 11.768V20H242.881ZM253.11 12.8C253.11 10.224 253.71 8.312 254.91 7.064C256.11 5.8 258.054 5.168 260.742 5.168C263.43 5.168 265.374 5.8 266.574 7.064C267.774 8.312 268.374 10.224 268.374 12.8C268.374 15.376 267.774 17.296 266.574 18.56C265.374 19.808 263.43 20.432 260.742 20.432C258.118 20.432 256.19 19.816 254.958 18.584C253.726 17.352 253.11 15.424 253.11 12.8ZM259.302 10.592V16.232H260.19C260.894 16.232 261.398 16.16 261.702 16.016C262.022 15.872 262.182 15.536 262.182 15.008V9.368H261.294C260.59 9.368 260.078 9.44 259.758 9.584C259.454 9.728 259.302 10.064 259.302 10.592ZM269.91 23.888L270.654 19.592C272.302 20.152 274.214 20.432 276.39 20.432C276.71 20.432 276.982 20.424 277.206 20.408C277.446 20.408 277.63 20.4 277.758 20.384V19.376C276.894 19.376 276.19 19.36 275.646 19.328C275.102 19.28 274.694 19.216 274.422 19.136C273.878 18.992 273.534 18.848 273.39 18.704C273.214 18.56 273.11 18.448 273.078 18.368C273.046 18.272 273.03 18.136 273.03 17.96L273.894 15.488C272.518 15.232 271.47 14.712 270.75 13.928C270.03 13.128 269.67 11.888 269.67 10.208C269.67 8.544 270.238 7.288 271.374 6.44C272.51 5.592 274.35 5.168 276.894 5.168C277.358 5.168 277.79 5.184 278.19 5.216C278.59 5.232 278.974 5.272 279.342 5.336L281.862 3.416L284.886 6.32L283.23 8.24C283.486 8.896 283.614 9.76 283.614 10.832C283.614 11.584 283.526 12.24 283.35 12.8C283.174 13.36 282.878 13.832 282.462 14.216C282.062 14.6 281.534 14.904 280.878 15.128C280.222 15.336 279.406 15.48 278.43 15.56L278.31 16.256C279.35 16.32 280.23 16.424 280.95 16.568C281.67 16.696 282.254 16.904 282.702 17.192C283.15 17.48 283.47 17.848 283.662 18.296C283.87 18.744 283.974 19.312 283.974 20C283.974 21.152 283.742 22.048 283.278 22.688C282.814 23.328 282.206 23.8 281.454 24.104C280.718 24.408 279.878 24.592 278.934 24.656C278.006 24.72 277.07 24.752 276.126 24.752C274.222 24.752 272.15 24.464 269.91 23.888ZM275.094 10.208V12.08H275.982C276.67 12.08 277.174 12.008 277.494 11.864C277.814 11.72 277.974 11.392 277.974 10.88V9.008H277.062C276.374 9.008 275.87 9.08 275.55 9.224C275.246 9.368 275.094 9.696 275.094 10.208ZM287.492 6.176C288.724 5.504 290.412 5.168 292.556 5.168C294.716 5.168 296.692 5.464 298.484 6.056L297.812 9.968C297.06 9.744 296.316 9.584 295.58 9.488C294.844 9.392 294.092 9.344 293.324 9.344C293.1 9.344 292.82 9.352 292.484 9.368C292.164 9.384 291.796 9.416 291.38 9.464V10.376C292.26 10.376 293.164 10.424 294.092 10.52C295.02 10.6 295.86 10.808 296.612 11.144C297.38 11.464 298.004 11.952 298.484 12.608C298.98 13.248 299.228 14.128 299.228 15.248C299.228 16.032 299.14 16.736 298.964 17.36C298.788 17.968 298.516 18.456 298.148 18.824C297.764 19.192 297.364 19.488 296.948 19.712C296.548 19.936 296.02 20.096 295.364 20.192C294.852 20.272 294.3 20.328 293.708 20.36C293.132 20.408 292.508 20.432 291.836 20.432C289.484 20.432 287.332 20.152 285.38 19.592L286.1 15.512C286.916 15.752 287.756 15.936 288.62 16.064C289.484 16.192 290.388 16.256 291.332 16.256C291.764 16.256 292.172 16.248 292.556 16.232C292.956 16.216 293.34 16.184 293.708 16.136V15.224C292.172 15.224 290.884 15.128 289.844 14.936C288.82 14.728 287.988 14.416 287.348 14C286.724 13.584 286.276 13.04 286.004 12.368C285.748 11.696 285.62 10.896 285.62 9.968C285.62 8.112 286.244 6.848 287.492 6.176Z" fill="white"/>
</svg>
