<svg width="201" height="61" viewBox="0 0 201 61" fill="none" xmlns="http://www.w3.org/2000/svg">
<rect width="201" height="61" rx="30.5" fill="url(#paint0_linear_16_2298)"/>
<path d="M34.375 33.75V31.625H32.25V35.875H28V25.25H32.25V27.375H34.375V29.5H36.5V27.375H38.625V25.25H42.875V35.875H38.625V31.625H36.5V33.75H34.375ZM54.775 35.875H48.4V25.25H54.775V35.875ZM75.175 35.875H70.925V33.75H66.675V31.625H64.55V35.875H60.3V25.25H64.55V27.375H68.8V29.5H70.925V25.25H75.175V35.875ZM93.45 35.875H82.825V33.75H84.95V27.375H80.7V25.25H95.575V27.375H91.325V33.75H93.45V35.875ZM130 35.875H125.75V33.75H121.5V31.625H119.375V35.875H115.125V25.25H119.375V27.375H123.625V29.5H125.75V25.25H130V35.875ZM148.275 35.875H137.65V33.75H135.525V27.375H137.65V25.25H148.275V27.375H150.4V33.75H148.275V35.875ZM144.025 33.75V27.375H141.9V33.75H144.025ZM168.675 35.875H164.425V33.75H162.3V35.875H158.05V33.75H155.925V25.25H160.175V29.5H162.3V27.375H164.425V29.5H166.55V25.25H170.8V33.75H168.675V35.875Z" fill="white"/>
<defs>
<linearGradient id="paint0_linear_16_2298" x1="201" y1="-60" x2="-31.0002" y2="53.8022" gradientUnits="userSpaceOnUse">
<stop stop-color="#E6AC00"/>
<stop offset="0.989142" stop-color="#004EF5"/>
</linearGradient>
</defs>
</svg>
