<svg width="342" height="60" viewBox="0 0 342 60" fill="none" xmlns="http://www.w3.org/2000/svg">
<rect width="342" height="60" rx="30" fill="url(#paint0_linear_16_2506)"/>
<path d="M147.55 32.5V30.75H145.8V34.25H142.3V25.5H145.8V27.25H147.55V29H149.3V27.25H151.05V25.5H154.55V34.25H151.05V30.75H149.3V32.5H147.55ZM164.35 34.25H159.1V25.5H164.35V34.25ZM181.15 34.25H177.65V32.5H174.15V30.75H172.4V34.25H168.9V25.5H172.4V27.25H175.9V29H177.65V25.5H181.15V34.25ZM196.2 34.25H187.45V32.5H189.2V27.25H185.7V25.5H197.95V27.25H194.45V32.5H196.2V34.25Z" fill="white"/>
<defs>
<linearGradient id="paint0_linear_16_2506" x1="342" y1="-59.0164" x2="57.2764" y2="182.582" gradientUnits="userSpaceOnUse">
<stop stop-color="#E6AC00"/>
<stop offset="0.989142" stop-color="#004EF5"/>
</linearGradient>
</defs>
</svg>
