<svg width="201" height="61" viewBox="0 0 201 61" fill="none" xmlns="http://www.w3.org/2000/svg">
<rect width="201" height="61" rx="30.5" fill="url(#paint0_linear_16_2298)"/>
<path d="M72.025 33.75V31.625H69.9V35.875H65.65V25.25H69.9V27.375H72.025V29.5H74.15V27.375H76.275V25.25H80.525V35.875H76.275V31.625H74.15V33.75H72.025ZM92.425 35.875H86.05V25.25H92.425V35.875ZM112.825 35.875H108.575V33.75H104.325V31.625H102.2V35.875H97.95V25.25H102.2V27.375H106.45V29.5H108.575V25.25H112.825V35.875ZM131.1 35.875H120.475V33.75H122.6V27.375H118.35V25.25H133.225V27.375H128.975V33.75H131.1V35.875Z" fill="white"/>
<defs>
<linearGradient id="paint0_linear_16_2298" x1="201" y1="-60" x2="-31.0002" y2="53.8022" gradientUnits="userSpaceOnUse">
<stop stop-color="#E6AC00"/>
<stop offset="0.989142" stop-color="#004EF5"/>
</linearGradient>
</defs>
</svg>
