<svg width="342" height="54" viewBox="0 0 342 54" fill="none" xmlns="http://www.w3.org/2000/svg">
<rect width="342" height="54" rx="27" fill="url(#paint0_linear_16_2506)"/>
<path d="M116.575 32.5V30.75H114.825V34.25H111.325V25.5H114.825V27.25H116.575V29H118.325V27.25H120.075V25.5H123.575V34.25H120.075V30.75H118.325V32.5H116.575ZM133.375 34.25H128.125V25.5H133.375V34.25ZM150.175 34.25H146.675V32.5H143.175V30.75H141.425V34.25H137.925V25.5H141.425V27.25H144.925V29H146.675V25.5H150.175V34.25ZM165.225 34.25H156.475V32.5H158.225V27.25H154.725V25.5H166.975V27.25H163.475V32.5H165.225V34.25ZM195.325 34.25H191.825V32.5H188.325V30.75H186.575V34.25H183.075V25.5H186.575V27.25H190.075V29H191.825V25.5H195.325V34.25ZM210.375 34.25H201.625V32.5H199.875V27.25H201.625V25.5H210.375V27.25H212.125V32.5H210.375V34.25ZM206.875 32.5V27.25H205.125V32.5H206.875ZM227.175 34.25H223.675V32.5H221.925V34.25H218.425V32.5H216.675V25.5H220.175V29H221.925V27.25H223.675V29H225.425V25.5H228.925V32.5H227.175V34.25Z" fill="white"/>
<defs>
<linearGradient id="paint0_linear_16_2506" x1="342" y1="-53.1147" x2="82.7343" y2="191.326" gradientUnits="userSpaceOnUse">
<stop stop-color="#E6AC00"/>
<stop offset="0.989142" stop-color="#004EF5"/>
</linearGradient>
</defs>
</svg>
