<svg width="77" height="11" viewBox="0 0 77 11" fill="none" xmlns="http://www.w3.org/2000/svg">
<path d="M15.275 10.875H8.9V6.625H6.775V10.875H0.400002V0.25H6.775V4.5H8.9V0.25H15.275V10.875ZM33.55 10.875H22.925V8.75H20.8V2.375H22.925V0.25H33.55V2.375H35.675V8.75H33.55V10.875ZM29.3 8.75V2.375H27.175V8.75H29.3ZM47.575 8.75V6.625H45.45V10.875H41.2V0.25H45.45V2.375H47.575V4.5H49.7V2.375H51.825V0.25H56.075V10.875H51.825V6.625H49.7V8.75H47.575ZM67.975 8.75H76.475V10.875H61.6V0.25H76.475V2.375H67.975V4.5H74.35V6.625H67.975V8.75Z" fill="white"/>
</svg>
