<svg width="129" height="11" viewBox="0 0 129 11" fill="none" xmlns="http://www.w3.org/2000/svg">
<path d="M6.425 8.75H14.925V10.875H0.0500031V0.25H6.425V8.75ZM26.825 10.875H20.45V0.25H26.825V10.875ZM45.1 10.875H34.475V8.75H32.35V2.375H34.475V0.25H45.1V2.375H47.225V4.5H40.85V2.375H38.725V8.75H40.85V6.625H47.225V8.75H45.1V10.875ZM59.125 8.75H67.625V10.875H52.75V0.25H67.625V2.375H59.125V4.5H65.5V6.625H59.125V8.75ZM88.025 10.875H83.775V8.75H79.525V6.625H77.4V10.875H73.15V0.25H77.4V2.375H81.65V4.5H83.775V0.25H88.025V10.875ZM106.3 10.875H93.55V8.75H102.05V6.625H95.675V4.5H93.55V2.375H95.675V0.25H108.425V2.375H99.925V4.5H106.3V6.625H108.425V8.75H106.3V10.875ZM120.325 8.75H128.825V10.875H113.95V0.25H128.825V2.375H120.325V4.5H126.7V6.625H120.325V8.75Z" fill="white"/>
</svg>
