<svg width="18" height="16" viewBox="0 0 18 16" fill="none" xmlns="http://www.w3.org/2000/svg">
<path d="M5.96473 10.2995C5.90473 10.4218 5.90473 10.5425 5.90473 10.664C5.96473 11.0518 6.30073 11.3368 6.69373 11.3315H7.66423V14.9135C7.66423 15.278 7.36123 15.581 6.99673 15.581H4.93273C4.75619 15.5793 4.58739 15.5082 4.46269 15.3833C4.33799 15.2583 4.26735 15.0893 4.26598 14.9128V11.3323H0.743983C0.197983 11.3323 -0.166517 10.7855 0.0764827 10.2995L5.29648 0.829273C5.3656 0.704564 5.46684 0.60063 5.58969 0.52826C5.71254 0.455891 5.85253 0.417725 5.99511 0.417725C6.13769 0.417725 6.27767 0.455891 6.40052 0.52826C6.52337 0.60063 6.62461 0.704564 6.69373 0.829273L8.87848 5.01802L5.96473 10.2995ZM17.9235 10.2995L12.7035 0.829273C12.6343 0.704746 12.5331 0.600983 12.4103 0.52874C12.2875 0.456496 12.1477 0.4184 12.0052 0.4184C11.8628 0.4184 11.7229 0.456496 11.6001 0.52874C11.4774 0.600983 11.3762 0.704746 11.307 0.829273L9.06073 5.01877L11.9745 10.2988C12.0352 10.4218 12.0352 10.5433 12.0352 10.664C11.9752 11.0518 11.6385 11.3368 11.2462 11.3315H10.2742V14.9135C10.278 15.281 10.5742 15.5788 10.9417 15.581H13.1272C13.3039 15.5795 13.473 15.5087 13.598 15.3839C13.7231 15.2591 13.7943 15.0902 13.7962 14.9135V11.3323H17.2552C17.8027 11.3323 18.1657 10.7855 17.9227 10.2995H17.9235Z" fill="white"/>
</svg>
