<svg width="487" height="48" viewBox="0 0 487 48" fill="none" xmlns="http://www.w3.org/2000/svg">
<path d="M13.8 46V4H0.36V46H13.8ZM21.8837 21.08H18.5237V12.4H21.8837V7.024L35.3237 3.664V12.4H39.9717V21.08H35.3237V36.368C35.8837 36.48 36.4997 36.592 37.1717 36.704C37.8437 36.7787 38.553 36.8347 39.2997 36.872L38.6837 46.728C32.561 46.728 28.5664 46.392 26.6997 45.72C25.1317 45.16 23.937 44.4507 23.1157 43.592C22.2944 42.696 21.8837 41.3893 21.8837 39.672V21.08ZM43.697 4V14.248H48.401L46.329 23.488H51.593L54.393 13.016V4H43.697ZM63.108 13.744C65.9827 12.176 69.9213 11.392 74.924 11.392C79.964 11.392 84.5747 12.0827 88.756 13.464L87.188 22.592C85.4333 22.0693 83.6973 21.696 81.98 21.472C80.2627 21.248 78.508 21.136 76.716 21.136C76.1933 21.136 75.54 21.1547 74.756 21.192C74.0093 21.2293 73.1507 21.304 72.18 21.416V23.544C74.2333 23.544 76.3427 23.656 78.508 23.88C80.6733 24.0667 82.6333 24.552 84.388 25.336C86.18 26.0827 87.636 27.2213 88.756 28.752C89.9133 30.2453 90.492 32.2987 90.492 34.912C90.492 36.7413 90.2867 38.384 89.876 39.84C89.4653 41.2587 88.8307 42.3973 87.972 43.256C87.076 44.1147 86.1427 44.8053 85.172 45.328C84.2387 45.8507 83.0067 46.224 81.476 46.448C80.2813 46.6347 78.9933 46.7653 77.612 46.84C76.268 46.952 74.812 47.008 73.244 47.008C67.756 47.008 62.7347 46.3547 58.18 45.048L59.86 35.528C61.764 36.088 63.724 36.5173 65.74 36.816C67.756 37.1147 69.8653 37.264 72.068 37.264C73.076 37.264 74.028 37.2453 74.924 37.208C75.8573 37.1707 76.7533 37.096 77.612 36.984V34.856C74.028 34.856 71.0227 34.632 68.596 34.184C66.2067 33.6987 64.2653 32.9707 62.772 32C61.316 31.0293 60.2707 29.76 59.636 28.192C59.0387 26.624 58.74 24.7573 58.74 22.592C58.74 18.2613 60.196 15.312 63.108 13.744ZM113.321 21.08H109.961V12.4H113.321V7.024L126.761 3.664V12.4H131.409V21.08H126.761V36.368C127.321 36.48 127.937 36.592 128.609 36.704C129.281 36.7787 129.991 36.8347 130.737 36.872L130.121 46.728C123.999 46.728 120.004 46.392 118.137 45.72C116.569 45.16 115.375 44.4507 114.553 43.592C113.732 42.696 113.321 41.3893 113.321 39.672V21.08ZM149.863 46H136.423V14.08L149.863 12.4V46ZM135.695 6.072C135.695 5.064 135.807 4.224 136.031 3.552C136.255 2.84267 136.647 2.28267 137.207 1.872C137.767 1.424 138.532 1.10666 139.503 0.919996C140.473 0.73333 141.705 0.639997 143.199 0.639997C144.692 0.639997 145.905 0.73333 146.839 0.919996C147.809 1.10666 148.575 1.424 149.135 1.872C149.695 2.28267 150.087 2.84267 150.311 3.552C150.535 4.224 150.647 5.064 150.647 6.072C150.647 7.08 150.535 7.92 150.311 8.592C150.087 9.264 149.695 9.824 149.135 10.272C148.575 10.6827 147.809 10.9813 146.839 11.168C145.905 11.3173 144.692 11.392 143.199 11.392C142.116 11.392 141.108 11.3547 140.175 11.28C139.279 11.2053 138.495 11 137.823 10.664C137.151 10.2907 136.628 9.74933 136.255 9.04C135.881 8.33067 135.695 7.34133 135.695 6.072ZM175.418 46V22.48H174.466C173.869 22.48 173.29 22.4987 172.73 22.536C172.208 22.5733 171.741 22.704 171.33 22.928C170.92 23.1147 170.602 23.4133 170.378 23.824C170.154 24.2347 170.042 24.8133 170.042 25.56V46H156.602V12.4H163.322L166.346 15.48C169.072 12.7547 172.656 11.392 177.098 11.392C181.504 11.392 184.714 12.3067 186.73 14.136C189.53 12.3067 192.704 11.392 196.25 11.392C199.872 11.392 202.672 12.0827 204.65 13.464C206.666 14.808 207.674 16.6933 207.674 19.12V46H194.234V22.48H193.282C192.76 22.48 192.237 22.4987 191.714 22.536C191.192 22.5733 190.725 22.6853 190.314 22.872C189.941 23.0213 189.605 23.2827 189.306 23.656C189.045 24.0293 188.896 24.5333 188.858 25.168V46H175.418ZM227.128 34.576V36.928C227.8 37.0027 228.472 37.0587 229.144 37.096C229.816 37.1333 230.488 37.152 231.16 37.152C235.341 37.152 239.56 36.48 243.816 35.136L245.384 44.992C240.344 46.336 235.379 47.008 230.488 47.008C224.216 47.008 219.68 45.552 216.88 42.64C214.08 39.6907 212.68 35.2107 212.68 29.2C212.68 23.1893 214.08 18.728 216.88 15.816C219.717 12.8667 224.253 11.392 230.488 11.392C233.624 11.392 236.237 11.5973 238.328 12.008C240.419 12.3813 242.099 13.0347 243.368 13.968C244.675 14.864 245.589 16.096 246.112 17.664C246.672 19.1947 246.952 21.136 246.952 23.488C246.952 25.4293 246.616 27.1093 245.944 28.528C245.309 29.9093 244.227 31.048 242.696 31.944C241.165 32.84 239.131 33.512 236.592 33.96C234.053 34.3707 230.899 34.576 227.128 34.576ZM227.128 24.048V26.792H229.872C231.515 26.792 232.691 26.624 233.4 26.288C234.147 25.952 234.52 25.168 234.52 23.936V21.192H231.776C230.133 21.192 228.939 21.36 228.192 21.696C227.483 22.032 227.128 22.816 227.128 24.048ZM270.11 21.08H266.75V12.4H270.11V7.024L283.55 3.664V12.4H288.198V21.08H283.55V36.368C284.11 36.48 284.726 36.592 285.398 36.704C286.07 36.7787 286.78 36.8347 287.526 36.872L286.91 46.728C280.788 46.728 276.793 46.392 274.926 45.72C273.358 45.16 272.164 44.4507 271.342 43.592C270.521 42.696 270.11 41.3893 270.11 39.672V21.08ZM291.868 29.2C291.868 23.1893 293.268 18.728 296.068 15.816C298.868 12.8667 303.404 11.392 309.676 11.392C315.948 11.392 320.484 12.8667 323.284 15.816C326.084 18.728 327.484 23.1893 327.484 29.2C327.484 35.2107 326.084 39.6907 323.284 42.64C320.484 45.552 315.948 47.008 309.676 47.008C303.553 47.008 299.054 45.5707 296.18 42.696C293.305 39.8213 291.868 35.3227 291.868 29.2ZM306.316 24.048V37.208H308.388C310.03 37.208 311.206 37.04 311.916 36.704C312.662 36.368 313.036 35.584 313.036 34.352V21.192H310.964C309.321 21.192 308.126 21.36 307.38 21.696C306.67 22.032 306.316 22.816 306.316 24.048ZM368.465 46V22.48H367.513C366.916 22.48 366.337 22.4987 365.777 22.536C365.254 22.5733 364.788 22.704 364.377 22.928C363.966 23.1147 363.649 23.4133 363.425 23.824C363.201 24.2347 363.089 24.8133 363.089 25.56V46H349.649V12.4H356.369L359.393 15.48C362.118 12.7547 365.702 11.392 370.145 11.392C374.55 11.392 377.761 12.3067 379.777 14.136C382.577 12.3067 385.75 11.392 389.297 11.392C392.918 11.392 395.718 12.0827 397.697 13.464C399.713 14.808 400.721 16.6933 400.721 19.12V46H387.281V22.48H386.329C385.806 22.48 385.284 22.4987 384.761 22.536C384.238 22.5733 383.772 22.6853 383.361 22.872C382.988 23.0213 382.652 23.2827 382.353 23.656C382.092 24.0293 381.942 24.5333 381.905 25.168V46H368.465ZM420.511 46H407.071V14.08L420.511 12.4V46ZM406.343 6.072C406.343 5.064 406.455 4.224 406.679 3.552C406.903 2.84267 407.295 2.28267 407.855 1.872C408.415 1.424 409.18 1.10666 410.151 0.919996C411.122 0.73333 412.354 0.639997 413.847 0.639997C415.34 0.639997 416.554 0.73333 417.487 0.919996C418.458 1.10666 419.223 1.424 419.783 1.872C420.343 2.28267 420.735 2.84267 420.959 3.552C421.183 4.224 421.295 5.064 421.295 6.072C421.295 7.08 421.183 7.92 420.959 8.592C420.735 9.264 420.343 9.824 419.783 10.272C419.223 10.6827 418.458 10.9813 417.487 11.168C416.554 11.3173 415.34 11.392 413.847 11.392C412.764 11.392 411.756 11.3547 410.823 11.28C409.927 11.2053 409.143 11 408.471 10.664C407.799 10.2907 407.276 9.74933 406.903 9.04C406.53 8.33067 406.343 7.34133 406.343 6.072ZM427.251 12.4H433.971L437.331 15.76C441.475 12.848 445.955 11.392 450.771 11.392C453.944 11.392 456.408 12.0827 458.163 13.464C459.955 14.808 460.851 16.6933 460.851 19.12V46H447.411V22.48H445.339C443.808 22.48 442.651 22.648 441.867 22.984C441.083 23.2827 440.691 23.9733 440.691 25.056V46H427.251V12.4ZM468.571 21.08H465.211V12.4H468.571V7.024L482.011 3.664V12.4H486.659V21.08H482.011V36.368C482.571 36.48 483.187 36.592 483.859 36.704C484.531 36.7787 485.241 36.8347 485.987 36.872L485.371 46.728C479.249 46.728 475.254 46.392 473.387 45.72C471.819 45.16 470.625 44.4507 469.803 43.592C468.982 42.696 468.571 41.3893 468.571 39.672V21.08Z" fill="white"/>
</svg>
