<svg width="143" height="11" viewBox="0 0 143 11" fill="none" xmlns="http://www.w3.org/2000/svg">
<path d="M6.375 8.75V6.625H4.25V10.875H0V0.25H4.25V2.375H6.375V4.5H8.5V2.375H10.625V0.25H14.875V10.875H10.625V6.625H8.5V8.75H6.375ZM26.775 10.875H20.4V0.25H26.775V10.875ZM47.175 10.875H42.925V8.75H38.675V6.625H36.55V10.875H32.3V0.25H36.55V2.375H40.8V4.5H42.925V0.25H47.175V10.875ZM65.45 10.875H54.825V8.75H56.95V2.375H52.7V0.25H67.575V2.375H63.325V8.75H65.45V10.875ZM102 10.875H97.75V8.75H93.5V6.625H91.375V10.875H87.125V0.25H91.375V2.375H95.625V4.5H97.75V0.25H102V10.875ZM120.275 10.875H109.65V8.75H107.525V2.375H109.65V0.25H120.275V2.375H122.4V8.75H120.275V10.875ZM116.025 8.75V2.375H113.9V8.75H116.025ZM140.675 10.875H136.425V8.75H134.3V10.875H130.05V8.75H127.925V0.25H132.175V4.5H134.3V2.375H136.425V4.5H138.55V0.25H142.8V8.75H140.675V10.875Z" fill="white"/>
<path d="M6.375 8.75V6.625H4.25V10.875H0V0.25H4.25V2.375H6.375V4.5H8.5V2.375H10.625V0.25H14.875V10.875H10.625V6.625H8.5V8.75H6.375ZM26.775 10.875H20.4V0.25H26.775V10.875ZM47.175 10.875H42.925V8.75H38.675V6.625H36.55V10.875H32.3V0.25H36.55V2.375H40.8V4.5H42.925V0.25H47.175V10.875ZM65.45 10.875H54.825V8.75H56.95V2.375H52.7V0.25H67.575V2.375H63.325V8.75H65.45V10.875ZM102 10.875H97.75V8.75H93.5V6.625H91.375V10.875H87.125V0.25H91.375V2.375H95.625V4.5H97.75V0.25H102V10.875ZM120.275 10.875H109.65V8.75H107.525V2.375H109.65V0.25H120.275V2.375H122.4V8.75H120.275V10.875ZM116.025 8.75V2.375H113.9V8.75H116.025ZM140.675 10.875H136.425V8.75H134.3V10.875H130.05V8.75H127.925V0.25H132.175V4.5H134.3V2.375H136.425V4.5H138.55V0.25H142.8V8.75H140.675V10.875Z" fill="url(#paint0_linear_16_2620)"/>
<defs>
<linearGradient id="paint0_linear_16_2620" x1="145" y1="-49.3934" x2="-9.9101" y2="40.9802" gradientUnits="userSpaceOnUse">
<stop stop-color="#E6AC00"/>
<stop offset="0.989142" stop-color="#004EF5"/>
</linearGradient>
</defs>
</svg>
