<svg width="507" height="288" viewBox="0 0 507 288" fill="none" xmlns="http://www.w3.org/2000/svg">
<g opacity="0.1">
<rect x="91" width="32" height="32" fill="#FF0000"/>
<rect x="123" width="32" height="32" fill="#FF0000"/>
<rect x="155" width="32" height="32" fill="#FF7400"/>
<rect x="187" width="32" height="32" fill="#FF7400"/>
<rect x="219" width="32" height="32" fill="#FF7700"/>
<rect x="251" width="32" height="32" fill="#FF0000"/>
<rect x="283" width="32" height="32" fill="#FF0000"/>
<rect x="315" width="32" height="32" fill="#FF0000"/>
<rect x="27" y="32" width="32" height="32" fill="#FF0000"/>
<rect x="59" y="32" width="32" height="32" fill="#FF993C"/>
<rect x="91" y="32" width="32" height="32" fill="#00C0DA"/>
<rect x="123" y="32" width="32" height="32" fill="#00C0DA"/>
<rect x="155" y="32" width="32" height="32" fill="#00C0DA"/>
<rect x="187" y="32" width="32" height="32" fill="#00C0DA"/>
<rect x="219" y="32" width="32" height="32" fill="#20D9E3"/>
<rect x="251" y="32" width="32" height="32" fill="#00C0DA"/>
<rect x="283" y="32" width="32" height="32" fill="#FF7400"/>
<rect x="315" y="32" width="32" height="32" fill="#FF4600"/>
<rect x="347" y="32" width="32" height="32" fill="#FF0000"/>
<rect x="-5" y="64" width="32" height="32" fill="#FD0000"/>
<rect x="27" y="64" width="32" height="32" fill="#00C0DA"/>
<rect x="59" y="64" width="32" height="32" fill="#3FBC28"/>
<rect x="91" y="64" width="32" height="32" fill="#EFE400"/>
<rect x="123" y="64" width="32" height="32" fill="#F7ED00"/>
<rect x="155" y="64" width="32" height="32" fill="#F5EB00"/>
<rect x="187" y="64" width="32" height="32" fill="#F5EB00"/>
<rect x="219" y="64" width="32" height="32" fill="#29B727"/>
<rect x="251" y="64" width="32" height="32" fill="#35B81E"/>
<rect x="283" y="64" width="32" height="32" fill="#00C0DA"/>
<rect x="315" y="64" width="32" height="32" fill="#00BED3"/>
<rect x="347" y="64" width="32" height="32" fill="#FF7400"/>
<rect x="379" y="64" width="32" height="32" fill="#FF0000"/>
<rect x="-5" y="96" width="32" height="32" fill="#00C0DA"/>
<rect x="27" y="96" width="32" height="32" fill="#F1DF00"/>
<rect x="59" y="96" width="32" height="32" fill="#0054B3"/>
<rect x="91" y="96" width="32" height="32" fill="#0054B5"/>
<rect x="187" y="96" width="32" height="32" fill="#005CBD"/>
<rect x="219" y="96" width="32" height="32" fill="#005EBF"/>
<rect x="251" y="96" width="32" height="32" fill="#EEE200"/>
<rect x="283" y="96" width="32" height="32" fill="#41BD29"/>
<rect x="315" y="96" width="32" height="32" fill="#00C0BB"/>
<rect x="347" y="96" width="32" height="32" fill="#00C0DA"/>
<rect x="379" y="96" width="32" height="32" fill="#FF7400"/>
<rect x="411" y="96" width="32" height="32" fill="#F70000"/>
<rect x="-5" y="128" width="32" height="32" fill="#F0DF00"/>
<rect x="27" y="128" width="32" height="32" fill="#0051B0"/>
<rect x="251" y="128" width="32" height="32" fill="#0052B0"/>
<rect x="283" y="128" width="32" height="32" fill="#FCF100"/>
<rect x="315" y="128" width="32" height="32" fill="#43BF2C"/>
<rect x="347" y="128" width="32" height="32" fill="#00C0DA"/>
<rect x="379" y="128" width="32" height="32" fill="#FF7400"/>
<rect x="411" y="128" width="32" height="32" fill="#FF7900"/>
<rect x="443" y="128" width="32" height="32" fill="#FF0000"/>
<rect x="-5" y="160" width="32" height="32" fill="#0063C5"/>
<rect x="283" y="160" width="32" height="32" fill="#0063C5"/>
<rect x="315" y="160" width="32" height="32" fill="#E8DD00"/>
<rect x="347" y="160" width="32" height="32" fill="#47BF31"/>
<rect x="379" y="160" width="32" height="32" fill="#20D9E3"/>
<rect x="411" y="160" width="32" height="32" fill="#FF9939"/>
<rect x="443" y="160" width="32" height="32" fill="#F20000"/>
<rect x="283" y="192" width="32" height="32" fill="#0063C5"/>
<rect x="315" y="192" width="32" height="32" fill="#FFF500"/>
<rect x="347" y="192" width="32" height="32" fill="#47BF31"/>
<rect x="379" y="192" width="32" height="32" fill="#00CCDF"/>
<rect x="411" y="192" width="32" height="32" fill="#FF7400"/>
<rect x="443" y="192" width="32" height="32" fill="#FF0000"/>
<rect x="475" y="192" width="32" height="32" fill="#FF0000"/>
<rect x="283" y="224" width="32" height="32" fill="#0063C5"/>
<rect x="315" y="224" width="32" height="32" fill="#E9E900"/>
<rect x="347" y="224" width="32" height="32" fill="#EFF100"/>
<rect x="379" y="224" width="32" height="32" fill="#4FC02E"/>
<rect x="411" y="224" width="32" height="32" fill="#00C3E2"/>
<rect x="443" y="224" width="32" height="32" fill="#FF7400"/>
<rect x="475" y="224" width="32" height="32" fill="#FF0000"/>
<rect x="283" y="256" width="32" height="32" fill="#0063C5"/>
<rect x="315" y="256" width="32" height="32" fill="#005FD0"/>
<rect x="347" y="256" width="32" height="32" fill="#FFF700"/>
<rect x="379" y="256" width="32" height="32" fill="#4CC035"/>
<rect x="411" y="256" width="32" height="32" fill="#00C0DA"/>
<rect x="443" y="256" width="32" height="32" fill="#FF7400"/>
<rect x="475" y="256" width="32" height="32" fill="#FF0000"/>
</g>
</svg>
