<svg width="331" height="65" viewBox="0 0 331 65" fill="none" xmlns="http://www.w3.org/2000/svg">
<path d="M34.0948 36L42.4148 52H25.5188L19.2468 37.728H15.9188V52H0.55875V4H24.7508C35.7588 4 41.2628 9.61066 41.2628 20.832C41.2628 28.512 38.8734 33.568 34.0948 36ZM19.4388 16.288H15.9188V25.888H19.4388C21.3161 25.888 22.6601 25.696 23.4708 25.312C24.3241 24.928 24.7508 24.0533 24.7508 22.688V19.488C24.7508 18.1227 24.3241 17.248 23.4708 16.864C22.6601 16.48 21.3161 16.288 19.4388 16.288ZM46.2728 32.8C46.2728 25.9307 47.8728 20.832 51.0728 17.504C54.2728 14.1333 59.4568 12.448 66.6248 12.448C73.7928 12.448 78.9768 14.1333 82.1768 17.504C85.3768 20.832 86.9768 25.9307 86.9768 32.8C86.9768 39.6693 85.3768 44.7893 82.1768 48.16C78.9768 51.488 73.7928 53.152 66.6248 53.152C59.6274 53.152 54.4861 51.5093 51.2008 48.224C47.9154 44.9387 46.2728 39.7973 46.2728 32.8ZM62.7847 26.912V41.952H65.1528C67.0301 41.952 68.3741 41.76 69.1848 41.376C70.0381 40.992 70.4648 40.096 70.4648 38.688V23.648H68.0968C66.2194 23.648 64.8541 23.84 64.0008 24.224C63.1901 24.608 62.7847 25.504 62.7847 26.912ZM111.297 12.448C123.585 12.448 129.729 16.672 129.729 25.12V52H122.049L117.697 47.648C116.929 48.5013 116.012 49.2693 114.945 49.952C113.921 50.6347 112.812 51.2107 111.617 51.68C110.423 52.1493 109.207 52.512 107.969 52.768C106.732 53.024 105.537 53.152 104.385 53.152C102.209 53.152 100.247 52.9173 98.4973 52.448C96.7906 52.0213 95.3399 51.3173 94.1453 50.336C92.9506 49.3547 92.0333 48.0533 91.3932 46.432C90.7533 44.8107 90.4333 42.8267 90.4333 40.48C90.4333 31.264 97.3879 26.656 111.297 26.656H114.369V23.904C113.559 23.8613 112.812 23.8187 112.129 23.776C111.489 23.7333 110.892 23.712 110.337 23.712C104.577 23.712 99.6066 24.416 95.4253 25.824L93.5693 14.816C98.6893 13.2373 104.599 12.448 111.297 12.448ZM105.921 38.816V41.952H109.121C111.34 41.952 112.791 41.696 113.473 41.184C114.071 40.6293 114.369 39.968 114.369 39.2V35.552H111.233C109.399 35.552 108.055 35.744 107.201 36.128C106.348 36.512 105.921 37.408 105.921 38.816ZM174.637 0.927998V52H166.957L163.629 48.8C161.453 51.7013 157.443 53.152 151.597 53.152C148.525 53.152 145.944 52.5973 143.853 51.488C141.763 50.3787 140.056 48.9067 138.733 47.072C137.453 45.1947 136.515 43.0187 135.917 40.544C135.363 38.0693 135.085 35.488 135.085 32.8C135.085 30.24 135.341 27.808 135.853 25.504C136.365 23.1573 137.219 21.1093 138.413 19.36C139.608 17.6107 141.187 16.224 143.149 15.2C145.112 14.1333 147.544 13.6 150.445 13.6H159.277V2.08L174.637 0.927998ZM151.597 26.912V41.952H153.965C155.715 41.952 156.995 41.8027 157.805 41.504C158.659 41.1627 159.149 40.3947 159.277 39.2V23.648H156.909C155.032 23.648 153.667 23.84 152.813 24.224C152.003 24.608 151.597 25.504 151.597 26.912ZM203.813 52V25.12H202.725C202.042 25.12 201.381 25.1413 200.741 25.184C200.143 25.2267 199.61 25.376 199.141 25.632C198.671 25.8453 198.309 26.1867 198.053 26.656C197.797 27.1253 197.669 27.7867 197.669 28.64V52H182.309V13.6H189.989L193.445 17.12C196.559 14.0053 200.655 12.448 205.733 12.448C210.767 12.448 214.437 13.4933 216.741 15.584C219.941 13.4933 223.567 12.448 227.621 12.448C231.759 12.448 234.959 13.2373 237.221 14.816C239.525 16.352 240.677 18.5067 240.677 21.28V52H225.317V25.12H224.229C223.631 25.12 223.034 25.1413 222.437 25.184C221.839 25.2267 221.306 25.3547 220.837 25.568C220.41 25.7387 220.026 26.0373 219.685 26.464C219.386 26.8907 219.215 27.4667 219.173 28.192V52H203.813ZM266.11 12.448C278.398 12.448 284.542 16.672 284.542 25.12V52H276.862L272.51 47.648C271.742 48.5013 270.824 49.2693 269.758 49.952C268.734 50.6347 267.624 51.2107 266.43 51.68C265.235 52.1493 264.019 52.512 262.782 52.768C261.544 53.024 260.35 53.152 259.198 53.152C257.022 53.152 255.059 52.9173 253.31 52.448C251.603 52.0213 250.152 51.3173 248.958 50.336C247.763 49.3547 246.846 48.0533 246.206 46.432C245.566 44.8107 245.246 42.8267 245.246 40.48C245.246 31.264 252.2 26.656 266.11 26.656H269.182V23.904C268.371 23.8613 267.624 23.8187 266.942 23.776C266.302 23.7333 265.704 23.712 265.15 23.712C259.39 23.712 254.419 24.416 250.238 25.824L248.382 14.816C253.502 13.2373 259.411 12.448 266.11 12.448ZM260.734 38.816V41.952H263.934C266.152 41.952 267.603 41.696 268.286 41.184C268.883 40.6293 269.182 39.968 269.182 39.2V35.552H266.046C264.211 35.552 262.867 35.744 262.014 36.128C261.16 36.512 260.734 37.408 260.734 38.816ZM291.434 64.672V13.6H299.114L301.93 17.44C304.191 14.112 308.372 12.448 314.474 12.448C317.546 12.448 320.127 13.0027 322.218 14.112C324.308 15.2213 325.994 16.7147 327.274 18.592C328.596 20.4267 329.535 22.5813 330.09 25.056C330.687 27.5307 330.986 30.112 330.986 32.8C330.986 35.4027 330.73 37.856 330.218 40.16C329.706 42.464 328.852 44.512 327.658 46.304C326.463 48.0533 324.884 49.44 322.922 50.464C320.959 51.488 318.527 52 315.626 52H306.794V63.52L291.434 64.672ZM306.794 26.528V41.952H309.162C311.039 41.952 312.383 41.76 313.194 41.376C314.047 40.992 314.474 40.096 314.474 38.688V23.648H312.106C310.996 23.648 310.1 23.6907 309.418 23.776C308.735 23.8613 308.138 24.1387 307.626 24.608C307.114 25.0347 306.836 25.6747 306.794 26.528Z" fill="white"/>
</svg>
