<svg width="138" height="11" viewBox="0 0 138 11" fill="none" xmlns="http://www.w3.org/2000/svg">
<path d="M15.175 10.875H8.8V8.75H6.675V10.875H0.300003V0.25H13.05V2.375H15.175V6.625H13.05V8.75H15.175V10.875ZM8.8 6.625V2.375H6.675V6.625H8.8ZM33.45 10.875H22.825V8.75H20.7V2.375H22.825V0.25H33.45V2.375H35.575V8.75H33.45V10.875ZM29.2 8.75V2.375H27.075V8.75H29.2ZM55.975 10.875H49.6V8.75H47.475V10.875H41.1V2.375H43.225V0.25H53.85V2.375H55.975V10.875ZM49.6 6.625V2.375H47.475V6.625H49.6ZM74.25 10.875H61.5V0.25H74.25V2.375H76.375V8.75H74.25V10.875ZM70 8.75V2.375H67.875V8.75H70ZM88.275 8.75V6.625H86.15V10.875H81.9V0.25H86.15V2.375H88.275V4.5H90.4V2.375H92.525V0.25H96.775V10.875H92.525V6.625H90.4V8.75H88.275ZM117.175 10.875H110.8V8.75H108.675V10.875H102.3V2.375H104.425V0.25H115.05V2.375H117.175V10.875ZM110.8 6.625V2.375H108.675V6.625H110.8ZM129.075 10.875H122.7V0.25H135.45V2.375H137.575V6.625H135.45V8.75H129.075V10.875ZM131.2 6.625V2.375H129.075V6.625H131.2Z" fill="white"/>
</svg>
