<svg width="196" height="21" viewBox="0 0 196 21" fill="none" xmlns="http://www.w3.org/2000/svg">
<path d="M9.8 13.16H5V2H0.2V17H9.8V13.16ZM10.638 11C10.638 8.85333 11.138 7.26 12.138 6.22C13.138 5.16667 14.758 4.64 16.998 4.64C19.238 4.64 20.858 5.16667 21.858 6.22C22.858 7.26 23.358 8.85333 23.358 11C23.358 13.1467 22.858 14.7467 21.858 15.8C20.858 16.84 19.238 17.36 16.998 17.36C14.8113 17.36 13.2046 16.8467 12.178 15.82C11.1513 14.7933 10.638 13.1867 10.638 11ZM15.798 9.16V13.86H16.538C17.1246 13.86 17.5446 13.8 17.798 13.68C18.0646 13.56 18.198 13.28 18.198 12.84V8.14H17.458C16.8713 8.14 16.4446 8.2 16.178 8.32C15.9246 8.44 15.798 8.72 15.798 9.16ZM25.7581 8.1H24.5581V5H25.7581V3.08L30.5581 1.88V5H32.2181V8.1H30.5581V13.56C30.7581 13.6 30.9781 13.64 31.2181 13.68C31.4581 13.7067 31.7115 13.7267 31.9781 13.74L31.7581 17.26C29.5715 17.26 28.1448 17.14 27.4781 16.9C26.9181 16.7 26.4915 16.4467 26.1981 16.14C25.9048 15.82 25.7581 15.3533 25.7581 14.74V8.1ZM33.5486 2V5.66H35.2286L34.4886 8.96H36.3686L37.3686 5.22V2H33.5486ZM40.4811 5.48C41.5078 4.92 42.9144 4.64 44.7011 4.64C46.5011 4.64 48.1478 4.88667 49.6411 5.38L49.0811 8.64C48.4544 8.45333 47.8344 8.32 47.2211 8.24C46.6078 8.16 45.9811 8.12 45.3411 8.12C45.1544 8.12 44.9211 8.12667 44.6411 8.14C44.3744 8.15333 44.0678 8.18 43.7211 8.22V8.98C44.4544 8.98 45.2078 9.02 45.9811 9.1C46.7544 9.16667 47.4544 9.34 48.0811 9.62C48.7211 9.88667 49.2411 10.2933 49.6411 10.84C50.0544 11.3733 50.2611 12.1067 50.2611 13.04C50.2611 13.6933 50.1878 14.28 50.0411 14.8C49.8944 15.3067 49.6678 15.7133 49.3611 16.02C49.0411 16.3267 48.7078 16.5733 48.3611 16.76C48.0278 16.9467 47.5878 17.08 47.0411 17.16C46.6144 17.2267 46.1544 17.2733 45.6611 17.3C45.1811 17.34 44.6611 17.36 44.1011 17.36C42.1411 17.36 40.3478 17.1267 38.7211 16.66L39.3211 13.26C40.0011 13.46 40.7011 13.6133 41.4211 13.72C42.1411 13.8267 42.8944 13.88 43.6811 13.88C44.0411 13.88 44.3811 13.8733 44.7011 13.86C45.0344 13.8467 45.3544 13.82 45.6611 13.78V13.02C44.3811 13.02 43.3078 12.94 42.4411 12.78C41.5878 12.6067 40.8944 12.3467 40.3611 12C39.8411 11.6533 39.4678 11.2 39.2411 10.64C39.0278 10.08 38.9211 9.41333 38.9211 8.64C38.9211 7.09333 39.4411 6.04 40.4811 5.48ZM57.4544 11C57.4544 8.85333 57.9544 7.26 58.9544 6.22C59.9544 5.16667 61.5744 4.64 63.8144 4.64C66.0544 4.64 67.6744 5.16667 68.6744 6.22C69.6744 7.26 70.1744 8.85333 70.1744 11C70.1744 13.1467 69.6744 14.7467 68.6744 15.8C67.6744 16.84 66.0544 17.36 63.8144 17.36C61.6277 17.36 60.021 16.8467 58.9944 15.82C57.9677 14.7933 57.4544 13.1867 57.4544 11ZM62.6144 9.16V13.86H63.3544C63.941 13.86 64.361 13.8 64.6144 13.68C64.881 13.56 65.0144 13.28 65.0144 12.84V8.14H64.2744C63.6877 8.14 63.261 8.2 62.9944 8.32C62.741 8.44 62.6144 8.72 62.6144 9.16ZM79.5745 4.18L77.6145 4V5H79.0545V8.12H77.6145V17H72.8145V8.12H71.6145V5H72.8145L72.9745 3.56C73.2012 1.72 74.6145 0.799999 77.2145 0.799999C77.8945 0.799999 78.7745 0.879999 79.8545 1.04L79.5745 4.18ZM87.8444 5.48C88.871 4.92 90.2777 4.64 92.0644 4.64C93.8644 4.64 95.511 4.88667 97.0044 5.38L96.4444 8.64C95.8177 8.45333 95.1977 8.32 94.5844 8.24C93.971 8.16 93.3444 8.12 92.7044 8.12C92.5177 8.12 92.2844 8.12667 92.0044 8.14C91.7377 8.15333 91.431 8.18 91.0844 8.22V8.98C91.8177 8.98 92.571 9.02 93.3444 9.1C94.1177 9.16667 94.8177 9.34 95.4444 9.62C96.0844 9.88667 96.6044 10.2933 97.0044 10.84C97.4177 11.3733 97.6244 12.1067 97.6244 13.04C97.6244 13.6933 97.551 14.28 97.4044 14.8C97.2577 15.3067 97.031 15.7133 96.7244 16.02C96.4044 16.3267 96.071 16.5733 95.7244 16.76C95.391 16.9467 94.951 17.08 94.4044 17.16C93.9777 17.2267 93.5177 17.2733 93.0244 17.3C92.5444 17.34 92.0244 17.36 91.4644 17.36C89.5044 17.36 87.711 17.1267 86.0844 16.66L86.6844 13.26C87.3644 13.46 88.0644 13.6133 88.7844 13.72C89.5044 13.8267 90.2577 13.88 91.0444 13.88C91.4044 13.88 91.7444 13.8733 92.0644 13.86C92.3977 13.8467 92.7177 13.82 93.0244 13.78V13.02C91.7444 13.02 90.671 12.94 89.8044 12.78C88.951 12.6067 88.2577 12.3467 87.7244 12C87.2044 11.6533 86.831 11.2 86.6044 10.64C86.391 10.08 86.2844 9.41333 86.2844 8.64C86.2844 7.09333 86.8044 6.04 87.8444 5.48ZM99.0616 5H103.862V13.86H104.602C105.188 13.86 105.608 13.8 105.862 13.68C106.128 13.56 106.262 13.28 106.262 12.84V5H111.062V17H108.662L107.262 15.64C106.302 16.7867 104.935 17.36 103.162 17.36C101.735 17.36 100.695 17.06 100.042 16.46C99.3882 15.8467 99.0616 14.8267 99.0616 13.4V5ZM113.462 17V5H115.862L117.182 6.34C118.142 5.46 119.328 4.89333 120.742 4.64L121.022 9.18C120.835 9.18 120.608 9.20667 120.342 9.26C120.075 9.31333 119.802 9.38 119.522 9.46C119.255 9.54 119.008 9.64 118.782 9.76C118.555 9.86667 118.382 9.99333 118.262 10.14V17H113.462ZM122.466 20.96V5H124.866L125.746 6.2C126.452 5.16 127.759 4.64 129.666 4.64C130.626 4.64 131.432 4.81333 132.086 5.16C132.739 5.50667 133.266 5.97333 133.666 6.56C134.079 7.13333 134.372 7.80667 134.546 8.58C134.732 9.35333 134.826 10.16 134.826 11C134.826 11.8133 134.746 12.58 134.586 13.3C134.426 14.02 134.159 14.66 133.786 15.22C133.412 15.7667 132.919 16.2 132.306 16.52C131.692 16.84 130.932 17 130.026 17H127.266V20.6L122.466 20.96ZM127.266 9.04V13.86H128.006C128.592 13.86 129.012 13.8 129.266 13.68C129.532 13.56 129.666 13.28 129.666 12.84V8.14H128.926C128.579 8.14 128.299 8.15333 128.086 8.18C127.872 8.20667 127.686 8.29333 127.526 8.44C127.366 8.57333 127.279 8.77333 127.266 9.04ZM136.743 17V5H139.143L140.463 6.34C141.423 5.46 142.61 4.89333 144.023 4.64L144.303 9.18C144.116 9.18 143.89 9.20667 143.623 9.26C143.356 9.31333 143.083 9.38 142.803 9.46C142.536 9.54 142.29 9.64 142.063 9.76C141.836 9.86667 141.663 9.99333 141.543 10.14V17H136.743ZM150.547 17H145.747V5.6L150.547 5V17ZM145.487 2.74C145.487 2.38 145.527 2.08 145.607 1.84C145.687 1.58667 145.827 1.38667 146.027 1.24C146.227 1.08 146.5 0.966666 146.847 0.899999C147.194 0.833332 147.634 0.799999 148.167 0.799999C148.7 0.799999 149.134 0.833332 149.467 0.899999C149.814 0.966666 150.087 1.08 150.287 1.24C150.487 1.38667 150.627 1.58667 150.707 1.84C150.787 2.08 150.827 2.38 150.827 2.74C150.827 3.1 150.787 3.4 150.707 3.64C150.627 3.88 150.487 4.08 150.287 4.24C150.087 4.38667 149.814 4.49333 149.467 4.56C149.134 4.61333 148.7 4.64 148.167 4.64C147.78 4.64 147.42 4.62667 147.087 4.6C146.767 4.57333 146.487 4.5 146.247 4.38C146.007 4.24667 145.82 4.05333 145.687 3.8C145.554 3.54667 145.487 3.19333 145.487 2.74ZM154.114 5.48C155.141 4.92 156.547 4.64 158.334 4.64C160.134 4.64 161.781 4.88667 163.274 5.38L162.714 8.64C162.087 8.45333 161.467 8.32 160.854 8.24C160.241 8.16 159.614 8.12 158.974 8.12C158.787 8.12 158.554 8.12667 158.274 8.14C158.007 8.15333 157.701 8.18 157.354 8.22V8.98C158.087 8.98 158.841 9.02 159.614 9.1C160.387 9.16667 161.087 9.34 161.714 9.62C162.354 9.88667 162.874 10.2933 163.274 10.84C163.687 11.3733 163.894 12.1067 163.894 13.04C163.894 13.6933 163.821 14.28 163.674 14.8C163.527 15.3067 163.301 15.7133 162.994 16.02C162.674 16.3267 162.341 16.5733 161.994 16.76C161.661 16.9467 161.221 17.08 160.674 17.16C160.247 17.2267 159.787 17.2733 159.294 17.3C158.814 17.34 158.294 17.36 157.734 17.36C155.774 17.36 153.981 17.1267 152.354 16.66L152.954 13.26C153.634 13.46 154.334 13.6133 155.054 13.72C155.774 13.8267 156.527 13.88 157.314 13.88C157.674 13.88 158.014 13.8733 158.334 13.86C158.667 13.8467 158.987 13.82 159.294 13.78V13.02C158.014 13.02 156.941 12.94 156.074 12.78C155.221 12.6067 154.527 12.3467 153.994 12C153.474 11.6533 153.101 11.2 152.874 10.64C152.661 10.08 152.554 9.41333 152.554 8.64C152.554 7.09333 153.074 6.04 154.114 5.48ZM170.251 12.92V13.76C170.491 13.7867 170.731 13.8067 170.971 13.82C171.211 13.8333 171.451 13.84 171.691 13.84C173.184 13.84 174.691 13.6 176.211 13.12L176.771 16.64C174.971 17.12 173.198 17.36 171.451 17.36C169.211 17.36 167.591 16.84 166.591 15.8C165.591 14.7467 165.091 13.1467 165.091 11C165.091 8.85333 165.591 7.26 166.591 6.22C167.604 5.16667 169.224 4.64 171.451 4.64C172.571 4.64 173.504 4.71333 174.251 4.86C174.998 4.99333 175.598 5.22667 176.051 5.56C176.518 5.88 176.844 6.32 177.031 6.88C177.231 7.42667 177.331 8.12 177.331 8.96C177.331 9.65333 177.211 10.2533 176.971 10.76C176.744 11.2533 176.358 11.66 175.811 11.98C175.264 12.3 174.538 12.54 173.631 12.7C172.724 12.8467 171.598 12.92 170.251 12.92ZM170.251 9.16V10.14H171.231C171.818 10.14 172.238 10.08 172.491 9.96C172.758 9.84 172.891 9.56 172.891 9.12V8.14H171.911C171.324 8.14 170.898 8.2 170.631 8.32C170.378 8.44 170.251 8.72 170.251 9.16ZM180.286 5.48C181.312 4.92 182.719 4.64 184.506 4.64C186.306 4.64 187.952 4.88667 189.446 5.38L188.886 8.64C188.259 8.45333 187.639 8.32 187.026 8.24C186.412 8.16 185.786 8.12 185.146 8.12C184.959 8.12 184.726 8.12667 184.446 8.14C184.179 8.15333 183.872 8.18 183.526 8.22V8.98C184.259 8.98 185.012 9.02 185.786 9.1C186.559 9.16667 187.259 9.34 187.886 9.62C188.526 9.88667 189.046 10.2933 189.446 10.84C189.859 11.3733 190.066 12.1067 190.066 13.04C190.066 13.6933 189.992 14.28 189.846 14.8C189.699 15.3067 189.472 15.7133 189.166 16.02C188.846 16.3267 188.512 16.5733 188.166 16.76C187.832 16.9467 187.392 17.08 186.846 17.16C186.419 17.2267 185.959 17.2733 185.466 17.3C184.986 17.34 184.466 17.36 183.906 17.36C181.946 17.36 180.152 17.1267 178.526 16.66L179.126 13.26C179.806 13.46 180.506 13.6133 181.226 13.72C181.946 13.8267 182.699 13.88 183.486 13.88C183.846 13.88 184.186 13.8733 184.506 13.86C184.839 13.8467 185.159 13.82 185.466 13.78V13.02C184.186 13.02 183.112 12.94 182.246 12.78C181.392 12.6067 180.699 12.3467 180.166 12C179.646 11.6533 179.272 11.2 179.046 10.64C178.832 10.08 178.726 9.41333 178.726 8.64C178.726 7.09333 179.246 6.04 180.286 5.48ZM191.843 9L191.743 2H195.503L195.403 9L195.203 12.44H192.043L191.843 9ZM193.623 13.44C194.156 13.44 194.596 13.6133 194.943 13.96C195.303 14.3067 195.483 14.76 195.483 15.32C195.483 15.88 195.303 16.3333 194.943 16.68C194.596 17.0267 194.156 17.2 193.623 17.2C193.09 17.2 192.643 17.02 192.283 16.66C191.923 16.3 191.743 15.8533 191.743 15.32C191.743 14.76 191.923 14.3067 192.283 13.96C192.643 13.6133 193.09 13.44 193.623 13.44Z" fill="white"/>
</svg>
