<svg width="189" height="17" viewBox="0 0 189 17" fill="none" xmlns="http://www.w3.org/2000/svg">
<path d="M12.3395 0.999999H0.579534V4.84H4.05953V16H8.85953V4.84H12.3395V0.999999ZM13.1717 10C13.1717 7.85333 13.6717 6.26 14.6717 5.22C15.6717 4.16667 17.2917 3.64 19.5317 3.64C21.7717 3.64 23.3917 4.16667 24.3917 5.22C25.3917 6.26 25.8917 7.85333 25.8917 10C25.8917 12.1467 25.3917 13.7467 24.3917 14.8C23.3917 15.84 21.7717 16.36 19.5317 16.36C17.3451 16.36 15.7384 15.8467 14.7117 14.82C13.6851 13.7933 13.1717 12.1867 13.1717 10ZM18.3317 8.16V12.86H19.0717C19.6584 12.86 20.0784 12.8 20.3317 12.68C20.5984 12.56 20.7317 12.28 20.7317 11.84V7.14H19.9917C19.4051 7.14 18.9784 7.2 18.7117 7.32C18.4584 7.44 18.3317 7.72 18.3317 8.16ZM33.808 15.4V0.399999L38.608 0.0399992V4.02C39.1946 3.76667 39.9946 3.64 41.008 3.64C41.968 3.64 42.7746 3.81333 43.428 4.16C44.0813 4.50667 44.608 4.97333 45.008 5.56C45.4213 6.13333 45.7146 6.80667 45.888 7.58C46.0746 8.35333 46.168 9.16 46.168 10C46.168 12.2533 45.648 13.88 44.608 14.88C43.568 15.8667 41.9946 16.36 39.888 16.36C37.7813 16.36 35.7546 16.04 33.808 15.4ZM38.608 8.04V12.86H39.348C39.9346 12.86 40.3546 12.8 40.608 12.68C40.8746 12.56 41.008 12.28 41.008 11.84V7.14H40.268C39.9213 7.14 39.6413 7.15333 39.428 7.18C39.2146 7.20667 39.028 7.29333 38.868 7.44C38.708 7.57333 38.6213 7.77333 38.608 8.04ZM52.7653 11.92V12.76C53.0053 12.7867 53.2453 12.8067 53.4853 12.82C53.7253 12.8333 53.9653 12.84 54.2053 12.84C55.6986 12.84 57.2053 12.6 58.7253 12.12L59.2853 15.64C57.4853 16.12 55.712 16.36 53.9653 16.36C51.7253 16.36 50.1053 15.84 49.1053 14.8C48.1053 13.7467 47.6053 12.1467 47.6053 10C47.6053 7.85333 48.1053 6.26 49.1053 5.22C50.1186 4.16667 51.7386 3.64 53.9653 3.64C55.0853 3.64 56.0186 3.71333 56.7653 3.86C57.512 3.99333 58.112 4.22667 58.5653 4.56C59.032 4.88 59.3586 5.32 59.5453 5.88C59.7453 6.42667 59.8453 7.12 59.8453 7.96C59.8453 8.65333 59.7253 9.25333 59.4853 9.76C59.2586 10.2533 58.872 10.66 58.3253 10.98C57.7786 11.3 57.052 11.54 56.1453 11.7C55.2386 11.8467 54.112 11.92 52.7653 11.92ZM52.7653 8.16V9.14H53.7453C54.332 9.14 54.752 9.08 55.0053 8.96C55.272 8.84 55.4053 8.56 55.4053 8.12V7.14H54.4253C53.8386 7.14 53.412 7.2 53.1453 7.32C52.892 7.44 52.7653 7.72 52.7653 8.16ZM73.3161 3.64C77.1561 3.64 79.0761 4.96 79.0761 7.6V16H76.6761L75.3161 14.64C75.0761 14.9067 74.7894 15.1467 74.4561 15.36C74.1361 15.5733 73.7894 15.7533 73.4161 15.9C73.0428 16.0467 72.6628 16.16 72.2761 16.24C71.8894 16.32 71.5161 16.36 71.1561 16.36C70.4761 16.36 69.8628 16.2867 69.3161 16.14C68.7828 16.0067 68.3294 15.7867 67.9561 15.48C67.5828 15.1733 67.2961 14.7667 67.0961 14.26C66.8961 13.7533 66.7961 13.1333 66.7961 12.4C66.7961 9.52 68.9694 8.08 73.3161 8.08H74.2761V7.22C74.0228 7.20667 73.7894 7.19333 73.5761 7.18C73.3761 7.16667 73.1894 7.16 73.0161 7.16C71.2161 7.16 69.6628 7.38 68.3561 7.82L67.7761 4.38C69.3761 3.88667 71.2228 3.64 73.3161 3.64ZM71.6361 11.88V12.86H72.6361C73.3294 12.86 73.7828 12.78 73.9961 12.62C74.1828 12.4467 74.2761 12.24 74.2761 12V10.86H73.2961C72.7228 10.86 72.3028 10.92 72.0361 11.04C71.7694 11.16 71.6361 11.44 71.6361 11.88ZM81.2298 4H83.6298L84.8298 5.2C86.3098 4.16 87.9098 3.64 89.6298 3.64C90.7632 3.64 91.6432 3.88667 92.2698 4.38C92.9098 4.86 93.2298 5.53333 93.2298 6.4V16H88.4298V7.6H87.6898C87.1432 7.6 86.7298 7.66 86.4498 7.78C86.1698 7.88667 86.0298 8.13333 86.0298 8.52V16H81.2298V4ZM95.5072 4H97.9072L99.1072 5.2C100.587 4.16 102.187 3.64 103.907 3.64C105.041 3.64 105.921 3.88667 106.547 4.38C107.187 4.86 107.507 5.53333 107.507 6.4V16H102.707V7.6H101.967C101.421 7.6 101.007 7.66 100.727 7.78C100.447 7.88667 100.307 8.13333 100.307 8.52V16H95.5072V4ZM109.305 10C109.305 7.85333 109.805 6.26 110.805 5.22C111.805 4.16667 113.425 3.64 115.665 3.64C117.905 3.64 119.525 4.16667 120.525 5.22C121.525 6.26 122.025 7.85333 122.025 10C122.025 12.1467 121.525 13.7467 120.525 14.8C119.525 15.84 117.905 16.36 115.665 16.36C113.478 16.36 111.871 15.8467 110.845 14.82C109.818 13.7933 109.305 12.1867 109.305 10ZM114.465 8.16V12.86H115.205C115.791 12.86 116.211 12.8 116.465 12.68C116.731 12.56 116.865 12.28 116.865 11.84V7.14H116.125C115.538 7.14 115.111 7.2 114.845 7.32C114.591 7.44 114.465 7.72 114.465 8.16ZM123.705 4H128.505V12.86H129.245C129.831 12.86 130.251 12.8 130.505 12.68C130.771 12.56 130.905 12.28 130.905 11.84V4H135.705V16H133.305L131.905 14.64C130.945 15.7867 129.578 16.36 127.805 16.36C126.378 16.36 125.338 16.06 124.685 15.46C124.031 14.8467 123.705 13.8267 123.705 12.4V4ZM138.105 4H140.505L141.705 5.2C143.185 4.16 144.785 3.64 146.505 3.64C147.638 3.64 148.518 3.88667 149.145 4.38C149.785 4.86 150.105 5.53333 150.105 6.4V16H145.305V7.6H144.565C144.018 7.6 143.605 7.66 143.325 7.78C143.045 7.88667 142.905 8.13333 142.905 8.52V16H138.105V4ZM161.182 12.4L161.482 15.86C160.656 16.1933 159.582 16.36 158.262 16.36C156.022 16.36 154.402 15.84 153.402 14.8C152.402 13.7467 151.902 12.1467 151.902 10C151.902 7.85333 152.402 6.26 153.402 5.22C154.402 4.16667 156.022 3.64 158.262 3.64C159.689 3.64 160.762 3.80667 161.482 4.14L160.902 7.4C160.476 7.32 160.096 7.26 159.762 7.22C159.429 7.16667 159.136 7.14 158.882 7.14C157.669 7.14 157.062 7.56667 157.062 8.42V12.72C157.289 12.76 157.549 12.7933 157.842 12.82C158.149 12.8467 158.489 12.86 158.862 12.86C159.609 12.86 160.382 12.7067 161.182 12.4ZM168.078 11.92V12.76C168.318 12.7867 168.558 12.8067 168.798 12.82C169.038 12.8333 169.278 12.84 169.518 12.84C171.011 12.84 172.518 12.6 174.038 12.12L174.598 15.64C172.798 16.12 171.024 16.36 169.278 16.36C167.038 16.36 165.418 15.84 164.418 14.8C163.418 13.7467 162.918 12.1467 162.918 10C162.918 7.85333 163.418 6.26 164.418 5.22C165.431 4.16667 167.051 3.64 169.278 3.64C170.398 3.64 171.331 3.71333 172.078 3.86C172.824 3.99333 173.424 4.22667 173.878 4.56C174.344 4.88 174.671 5.32 174.858 5.88C175.058 6.42667 175.158 7.12 175.158 7.96C175.158 8.65333 175.038 9.25333 174.798 9.76C174.571 10.2533 174.184 10.66 173.638 10.98C173.091 11.3 172.364 11.54 171.458 11.7C170.551 11.8467 169.424 11.92 168.078 11.92ZM168.078 8.16V9.14H169.058C169.644 9.14 170.064 9.08 170.318 8.96C170.584 8.84 170.718 8.56 170.718 8.12V7.14H169.738C169.151 7.14 168.724 7.2 168.458 7.32C168.204 7.44 168.078 7.72 168.078 8.16ZM188.833 0.0399992V16H186.433L185.393 15C184.713 15.9067 183.459 16.36 181.633 16.36C180.673 16.36 179.866 16.1867 179.213 15.84C178.559 15.4933 178.026 15.0333 177.613 14.46C177.213 13.8733 176.919 13.1933 176.733 12.42C176.559 11.6467 176.473 10.84 176.473 10C176.473 9.2 176.553 8.44 176.713 7.72C176.873 6.98667 177.139 6.34667 177.513 5.8C177.886 5.25333 178.379 4.82 178.993 4.5C179.606 4.16667 180.366 4 181.273 4H184.033V0.399999L188.833 0.0399992ZM181.633 8.16V12.86H182.373C182.919 12.86 183.319 12.8133 183.573 12.72C183.839 12.6133 183.993 12.3733 184.033 12V7.14H183.293C182.706 7.14 182.279 7.2 182.013 7.32C181.759 7.44 181.633 7.72 181.633 8.16Z" fill="white"/>
</svg>
