<svg width="87" height="18" viewBox="0 0 87 18" fill="none" xmlns="http://www.w3.org/2000/svg">
<path d="M0.299534 2H5.09953V13.26H6.79953C7.41287 13.26 7.8262 13.18 8.03953 13.02C8.2662 12.86 8.37953 12.5133 8.37953 11.98V2H13.1795V10.42C13.1795 11.7 13.0929 12.78 12.9195 13.66C12.7595 14.54 12.4395 15.26 11.9595 15.82C11.4929 16.3667 10.8395 16.76 9.99953 17C9.15953 17.24 8.07287 17.36 6.73953 17.36C5.4062 17.36 4.31953 17.24 3.47953 17C2.63953 16.76 1.97953 16.3667 1.49953 15.82C1.03287 15.2733 0.712867 14.56 0.539534 13.68C0.379534 12.7867 0.299534 11.7 0.299534 10.42V2ZM15.6903 8.1H14.4903V5H15.6903V3.08L20.4903 1.88V5H22.1503V8.1H20.4903V13.56C20.6903 13.6 20.9103 13.64 21.1503 13.68C21.3903 13.7067 21.6436 13.7267 21.9103 13.74L21.6903 17.26C19.5036 17.26 18.077 17.14 17.4103 16.9C16.8503 16.7 16.4236 16.4467 16.1303 16.14C15.837 15.82 15.6903 15.3533 15.6903 14.74V8.1ZM28.7408 17H23.9408V5.6L28.7408 5V17ZM23.6808 2.74C23.6808 2.38 23.7208 2.08 23.8008 1.84C23.8808 1.58667 24.0208 1.38667 24.2208 1.24C24.4208 1.08 24.6941 0.966666 25.0408 0.899999C25.3875 0.833332 25.8275 0.799999 26.3608 0.799999C26.8941 0.799999 27.3275 0.833332 27.6608 0.899999C28.0075 0.966666 28.2808 1.08 28.4808 1.24C28.6808 1.38667 28.8208 1.58667 28.9008 1.84C28.9808 2.08 29.0208 2.38 29.0208 2.74C29.0208 3.1 28.9808 3.4 28.9008 3.64C28.8208 3.88 28.6808 4.08 28.4808 4.24C28.2808 4.38667 28.0075 4.49333 27.6608 4.56C27.3275 4.61333 26.8941 4.64 26.3608 4.64C25.9741 4.64 25.6141 4.62667 25.2808 4.6C24.9608 4.57333 24.6808 4.5 24.4408 4.38C24.2008 4.24667 24.0141 4.05333 23.8808 3.8C23.7475 3.54667 23.6808 3.19333 23.6808 2.74ZM31.1478 1.4L35.9478 1.04V13.56C36.2011 13.6133 36.4278 13.6533 36.6278 13.68C36.8278 13.7067 36.9945 13.7267 37.1278 13.74L36.9078 17.26C34.8678 17.26 33.5145 17.14 32.8478 16.9C32.2878 16.7 31.8611 16.44 31.5678 16.12C31.2878 15.8 31.1478 15.34 31.1478 14.74V1.4ZM43.3697 17H38.5697V5.6L43.3697 5V17ZM38.3097 2.74C38.3097 2.38 38.3497 2.08 38.4297 1.84C38.5097 1.58667 38.6497 1.38667 38.8497 1.24C39.0497 1.08 39.323 0.966666 39.6697 0.899999C40.0164 0.833332 40.4564 0.799999 40.9897 0.799999C41.523 0.799999 41.9564 0.833332 42.2897 0.899999C42.6364 0.966666 42.9097 1.08 43.1097 1.24C43.3097 1.38667 43.4497 1.58667 43.5297 1.84C43.6097 2.08 43.6497 2.38 43.6497 2.74C43.6497 3.1 43.6097 3.4 43.5297 3.64C43.4497 3.88 43.3097 4.08 43.1097 4.24C42.9097 4.38667 42.6364 4.49333 42.2897 4.56C41.9564 4.61333 41.523 4.64 40.9897 4.64C40.603 4.64 40.243 4.62667 39.9097 4.6C39.5897 4.57333 39.3097 4.5 39.0697 4.38C38.8297 4.24667 38.643 4.05333 38.5097 3.8C38.3764 3.54667 38.3097 3.19333 38.3097 2.74ZM46.2567 8.1H45.0567V5H46.2567V3.08L51.0567 1.88V5H52.7167V8.1H51.0567V13.56C51.2567 13.6 51.4767 13.64 51.7167 13.68C51.9567 13.7067 52.2101 13.7267 52.4767 13.74L52.2567 17.26C50.0701 17.26 48.6434 17.14 47.9767 16.9C47.4167 16.7 46.9901 16.4467 46.6967 16.14C46.4034 15.82 46.2567 15.3533 46.2567 14.74V8.1ZM59.3072 17H54.5072V5.6L59.3072 5V17ZM54.2472 2.74C54.2472 2.38 54.2872 2.08 54.3672 1.84C54.4472 1.58667 54.5872 1.38667 54.7872 1.24C54.9872 1.08 55.2605 0.966666 55.6072 0.899999C55.9539 0.833332 56.3939 0.799999 56.9272 0.799999C57.4605 0.799999 57.8939 0.833332 58.2272 0.899999C58.5739 0.966666 58.8472 1.08 59.0472 1.24C59.2472 1.38667 59.3872 1.58667 59.4672 1.84C59.5472 2.08 59.5872 2.38 59.5872 2.74C59.5872 3.1 59.5472 3.4 59.4672 3.64C59.3872 3.88 59.2472 4.08 59.0472 4.24C58.8472 4.38667 58.5739 4.49333 58.2272 4.56C57.8939 4.61333 57.4605 4.64 56.9272 4.64C56.5405 4.64 56.1805 4.62667 55.8472 4.6C55.5272 4.57333 55.2472 4.5 55.0072 4.38C54.7672 4.24667 54.5805 4.05333 54.4472 3.8C54.3139 3.54667 54.2472 3.19333 54.2472 2.74ZM66.3942 12.92V13.76C66.6342 13.7867 66.8742 13.8067 67.1142 13.82C67.3542 13.8333 67.5942 13.84 67.8342 13.84C69.3276 13.84 70.8342 13.6 72.3542 13.12L72.9142 16.64C71.1142 17.12 69.3409 17.36 67.5942 17.36C65.3542 17.36 63.7342 16.84 62.7342 15.8C61.7342 14.7467 61.2342 13.1467 61.2342 11C61.2342 8.85333 61.7342 7.26 62.7342 6.22C63.7476 5.16667 65.3676 4.64 67.5942 4.64C68.7142 4.64 69.6476 4.71333 70.3942 4.86C71.1409 4.99333 71.7409 5.22667 72.1942 5.56C72.6609 5.88 72.9876 6.32 73.1742 6.88C73.3742 7.42667 73.4742 8.12 73.4742 8.96C73.4742 9.65333 73.3542 10.2533 73.1142 10.76C72.8876 11.2533 72.5009 11.66 71.9542 11.98C71.4076 12.3 70.6809 12.54 69.7742 12.7C68.8676 12.8467 67.7409 12.92 66.3942 12.92ZM66.3942 9.16V10.14H67.3742C67.9609 10.14 68.3809 10.08 68.6342 9.96C68.9009 9.84 69.0342 9.56 69.0342 9.12V8.14H68.0542C67.4676 8.14 67.0409 8.2 66.7742 8.32C66.5209 8.44 66.3942 8.72 66.3942 9.16ZM76.4289 5.48C77.4556 4.92 78.8622 4.64 80.6489 4.64C82.4489 4.64 84.0956 4.88667 85.5889 5.38L85.0289 8.64C84.4022 8.45333 83.7822 8.32 83.1689 8.24C82.5556 8.16 81.9289 8.12 81.2889 8.12C81.1022 8.12 80.8689 8.12667 80.5889 8.14C80.3222 8.15333 80.0156 8.18 79.6689 8.22V8.98C80.4022 8.98 81.1556 9.02 81.9289 9.1C82.7022 9.16667 83.4022 9.34 84.0289 9.62C84.6689 9.88667 85.1889 10.2933 85.5889 10.84C86.0022 11.3733 86.2089 12.1067 86.2089 13.04C86.2089 13.6933 86.1356 14.28 85.9889 14.8C85.8422 15.3067 85.6156 15.7133 85.3089 16.02C84.9889 16.3267 84.6556 16.5733 84.3089 16.76C83.9756 16.9467 83.5356 17.08 82.9889 17.16C82.5622 17.2267 82.1022 17.2733 81.6089 17.3C81.1289 17.34 80.6089 17.36 80.0489 17.36C78.0889 17.36 76.2956 17.1267 74.6689 16.66L75.2689 13.26C75.9489 13.46 76.6489 13.6133 77.3689 13.72C78.0889 13.8267 78.8422 13.88 79.6289 13.88C79.9889 13.88 80.3289 13.8733 80.6489 13.86C80.9822 13.8467 81.3022 13.82 81.6089 13.78V13.02C80.3289 13.02 79.2556 12.94 78.3889 12.78C77.5356 12.6067 76.8422 12.3467 76.3089 12C75.7889 11.6533 75.4156 11.2 75.1889 10.64C74.9756 10.08 74.8689 9.41333 74.8689 8.64C74.8689 7.09333 75.3889 6.04 76.4289 5.48Z" fill="white"/>
</svg>
